<svg width="32" height="32" viewBox="0 0 32 32" fill="none" xmlns="http://www.w3.org/2000/svg">
<rect x="3" y="3" width="26" height="26" rx="8" fill="#F7F8F9"/>
<g clip-path="url(#clip0_754_24184)">
<path d="M16.2106 22.956C17.3409 22.956 18.2571 22.0397 18.2571 20.9094C18.2571 19.7792 17.3409 18.8629 16.2106 18.8629C15.0803 18.8629 14.1641 19.7792 14.1641 20.9094C14.1641 22.0397 15.0803 22.956 16.2106 22.956Z" fill="#00D0DC" fill-opacity="0.2"/>
<path d="M16.2104 10.0599C18.9081 10.0599 21.0848 12.2553 21.0848 14.9344V18.7484H11.3359V14.9344C11.3359 12.2553 13.5127 10.0599 16.2104 10.0599Z" fill="#00D0DC"/>
<path d="M21.0921 18.4036H16.214H11.3395L10 20.9092H16.214H22.4466L21.0921 18.4036Z" fill="url(#paint0_linear_754_24184)"/>
<path d="M16.203 9.00049C15.4216 9.00049 14.7891 9.63305 14.7891 10.4145V12.461H17.6356V10.4145C17.6356 9.63305 17.003 9.00049 16.2216 9.00049H16.203Z" fill="#00D0DC"/>
</g>
<defs>
<linearGradient id="paint0_linear_754_24184" x1="16.214" y1="25.6162" x2="16.214" y2="11.6998" gradientUnits="userSpaceOnUse">
<stop offset="0.18" stop-color="#00D0DC"/>
<stop offset="0.29" stop-color="#00CAD7"/>
<stop offset="0.42" stop-color="#00BAC8"/>
<stop offset="0.57" stop-color="#00A0B1"/>
</linearGradient>
<clipPath id="clip0_754_24184">
<rect width="12.4466" height="13.9536" fill="white" transform="translate(10 9)"/>
</clipPath>
</defs>
</svg>
