<svg width="44" height="44" viewBox="0 0 44 44" fill="none" xmlns="http://www.w3.org/2000/svg">
<circle cx="22" cy="22" r="11.5" fill="#00D5E1" stroke="#00D5E1"/>
<path d="M17 20.1886C17 20.0135 17 19.9259 17.0073 19.8521C17.0778 19.1406 17.6406 18.5778 18.3521 18.5073C18.4259 18.5 18.5182 18.5 18.7028 18.5C18.7739 18.5 18.8095 18.5 18.8397 18.4982C19.2253 18.4748 19.563 18.2314 19.7071 17.873C19.7184 17.8449 19.7289 17.8133 19.75 17.75C19.7711 17.6867 19.7816 17.6551 19.7929 17.627C19.937 17.2686 20.2747 17.0252 20.6603 17.0018C20.6905 17 20.7239 17 20.7906 17H23.2094C23.2761 17 23.3095 17 23.3397 17.0018C23.7253 17.0252 24.063 17.2686 24.2071 17.627C24.2184 17.6551 24.2289 17.6867 24.25 17.75C24.2711 17.8133 24.2816 17.8449 24.2929 17.873C24.437 18.2314 24.7747 18.4748 25.1603 18.4982C25.1905 18.5 25.2261 18.5 25.2972 18.5C25.4818 18.5 25.5741 18.5 25.6479 18.5073C26.3594 18.5778 26.9222 19.1406 26.9927 19.8521C27 19.9259 27 20.0135 27 20.1886V24.1C27 24.9401 27 25.3601 26.8365 25.681C26.6927 25.9632 26.4632 26.1927 26.181 26.3365C25.8601 26.5 25.4401 26.5 24.6 26.5H19.4C18.5599 26.5 18.1399 26.5 17.819 26.3365C17.5368 26.1927 17.3073 25.9632 17.1635 25.681C17 25.3601 17 24.9401 17 24.1V20.1886Z" stroke="white" stroke-linecap="round" stroke-linejoin="round"/>
<path d="M22 24.25C23.1046 24.25 24 23.3546 24 22.25C24 21.1454 23.1046 20.25 22 20.25C20.8954 20.25 20 21.1454 20 22.25C20 23.3546 20.8954 24.25 22 24.25Z" stroke="white" stroke-linecap="round" stroke-linejoin="round"/>
</svg>
