<svg width="32" height="32" viewBox="0 0 32 32" fill="none" xmlns="http://www.w3.org/2000/svg">
<rect x="3" y="3" width="26" height="26" rx="8" fill="#F7F8F9"/>
<path d="M20.9665 16.637C20.9932 16.429 21.0132 16.221 21.0132 16C21.0132 15.779 20.9932 15.571 20.9665 15.363L22.3764 14.2905C22.5034 14.193 22.5368 14.0175 22.4566 13.8745L21.1202 11.6255C21.04 11.4825 20.8595 11.4305 20.7125 11.4825L19.0486 12.1325C18.7011 11.8725 18.3269 11.658 17.9193 11.4955L17.6654 9.773C17.6453 9.617 17.505 9.5 17.3379 9.5H14.665C14.4979 9.5 14.3576 9.617 14.3376 9.773L14.0836 11.4955C13.676 11.658 13.3018 11.879 12.9543 12.1325L11.2904 11.4825C11.1367 11.424 10.963 11.4825 10.8828 11.6255L9.54633 13.8745C9.45946 14.0175 9.49955 14.193 9.62652 14.2905L11.0365 15.363C11.0098 15.571 10.9897 15.7855 10.9897 16C10.9897 16.2145 11.0098 16.429 11.0365 16.637L9.62652 17.7095C9.49955 17.807 9.46614 17.9825 9.54633 18.1255L10.8828 20.3745C10.963 20.5175 11.1434 20.5695 11.2904 20.5175L12.9543 19.8675C13.3018 20.1275 13.676 20.342 14.0836 20.5045L14.3376 22.227C14.3576 22.383 14.4979 22.5 14.665 22.5H17.3379C17.505 22.5 17.6453 22.383 17.6654 22.227L17.9193 20.5045C18.3269 20.342 18.7011 20.121 19.0486 19.8675L20.7125 20.5175C20.8662 20.576 21.04 20.5175 21.1202 20.3745L22.4566 18.1255C22.5368 17.9825 22.5034 17.807 22.3764 17.7095L20.9665 16.637ZM16.0015 18.275C14.7118 18.275 13.6627 17.2545 13.6627 16C13.6627 14.7455 14.7118 13.725 16.0015 13.725C17.2912 13.725 18.3403 14.7455 18.3403 16C18.3403 17.2545 17.2912 18.275 16.0015 18.275Z" fill="url(#paint0_linear_754_24186)"/>
<defs>
<linearGradient id="paint0_linear_754_24186" x1="11" y1="12.5" x2="19" y2="22" gradientUnits="userSpaceOnUse">
<stop stop-color="#00D0DC"/>
<stop offset="1" stop-color="#01B9C7"/>
</linearGradient>
</defs>
</svg>
