<svg width="40" height="40" viewBox="0 0 40 40" fill="none" xmlns="http://www.w3.org/2000/svg">
<g clip-path="url(#clip0_5871_25917)">
<g clip-path="url(#clip1_5871_25917)">
<path d="M40.0022 20C40.0022 8.9543 31.0474 0 20.0011 0C8.95479 0 0 8.9543 0 20C0 31.0457 8.95479 40 20.0011 40C31.0474 40 40.0022 31.0457 40.0022 20Z" fill="#F7F8F9"/>
<mask id="mask0_5871_25917" style="mask-type:luminance" maskUnits="userSpaceOnUse" x="10" y="10" width="20" height="20">
<path d="M29.1047 10.9095H10.9219V29.0914H29.1047V10.9095Z" fill="white"/>
</mask>
<g mask="url(#mask0_5871_25917)">
<path d="M28.7356 20.207C28.7356 19.5623 28.6777 18.9425 28.5703 18.3474H20.0078V21.864H24.9006C24.6899 23.0003 24.0494 23.9631 23.0865 24.6078V26.8888H26.0247C27.7438 25.3061 28.7356 22.9755 28.7356 20.207Z" fill="#8691A2"/>
<path d="M20.0151 29.0914C22.4697 29.0914 24.5277 28.2773 26.0318 26.889L23.0937 24.608C22.2796 25.1534 21.2382 25.4757 20.0151 25.4757C17.6471 25.4757 15.6429 23.8765 14.928 21.7278H11.8906V24.0831C13.3866 27.0542 16.4611 29.0914 20.0151 29.0914Z" fill="#B3B9C4"/>
<path d="M14.9262 21.7278C14.7444 21.1823 14.6411 20.5997 14.6411 20.0005C14.6411 19.4013 14.7444 18.8187 14.9262 18.2732V15.9178H11.8888C11.2732 17.1451 10.9219 18.5336 10.9219 20.0005C10.9219 21.4674 11.2732 22.8558 11.8888 24.0831L14.9262 21.7278Z" fill="#8691A2"/>
<path d="M20.0151 14.5253C21.3498 14.5253 22.5482 14.9839 23.4904 15.8847L26.098 13.2773C24.5236 11.8104 22.4656 10.9095 20.0151 10.9095C16.4611 10.9095 13.3866 12.9467 11.8906 15.9178L14.928 18.2732C15.6429 16.1245 17.6471 14.5253 20.0151 14.5253Z" fill="#B3B9C4"/>
</g>
</g>
</g>
<defs>
<clipPath id="clip0_5871_25917">
<rect width="40" height="40" fill="white"/>
</clipPath>
<clipPath id="clip1_5871_25917">
<rect width="40.0022" height="40" fill="white"/>
</clipPath>
</defs>
</svg>
