<svg width="9" height="12" viewBox="0 0 9 12" fill="none" xmlns="http://www.w3.org/2000/svg">
<path id="Vector" d="M7.4596 4.12494H6.92677V3.04237C6.92677 1.54842 5.73323 0.335938 4.26263 0.335938C2.79202 0.335938 1.59849 1.54842 1.59849 3.04237V4.12494H1.06566C0.479546 4.12494 0 4.6121 0 5.20751V10.6204C0 11.2158 0.479546 11.7029 1.06566 11.7029H7.4596C8.04571 11.7029 8.52526 11.2158 8.52526 10.6204V5.20751C8.52526 4.6121 8.04571 4.12494 7.4596 4.12494ZM4.26263 8.99652C3.67652 8.99652 3.19697 8.50936 3.19697 7.91394C3.19697 7.31853 3.67652 6.83137 4.26263 6.83137C4.84874 6.83137 5.32829 7.31853 5.32829 7.91394C5.32829 8.50936 4.84874 8.99652 4.26263 8.99652ZM2.66414 4.12494V3.04237C2.66414 2.14383 3.37813 1.41851 4.26263 1.41851C5.14712 1.41851 5.86111 2.14383 5.86111 3.04237V4.12494H2.66414Z" fill="#B3B9C4"/>
</svg>
