<svg width="160" height="160" viewBox="0 0 160 160" fill="none" xmlns="http://www.w3.org/2000/svg">
<path fill-rule="evenodd" clip-rule="evenodd" d="M62 54H63V58L127 58V54L63 54H127.002C127.002 54 127.002 46 120.502 46L54 46L62 54Z" fill="#DDE0E5"/>
<path fill-rule="evenodd" clip-rule="evenodd" d="M120.5 46C114 46 114 54 114 54V120C114 120 114 131 105 131H47V120V54C47 54 47 46 55 46H120.5Z" fill="#F0F2F4"/>
<path fill-rule="evenodd" clip-rule="evenodd" d="M96 118H36V123C36 123 36 131 45 131H105C96 131 96 123 96 123V118Z" fill="#DDE0E5"/>
<rect x="58" y="70" width="43" height="3" rx="1.5" fill="#DDE0E5"/>
<rect x="58" y="80" width="43" height="3" rx="1.5" fill="#DDE0E5"/>
<rect x="58" y="90" width="43" height="3" rx="1.5" fill="#DDE0E5"/>
<rect x="58" y="100" width="25" height="3" rx="1.5" fill="#DDE0E5"/>
<circle cx="49.4948" cy="50.4999" r="12.184" fill="#00D5E1" stroke="#00D5E1" stroke-width="2.21528"/>
<path d="M55.1897 47.3357L47.3571 55.1683L43.7969 51.608" fill="#00D5E1"/>
<path d="M55.1897 47.3357L47.3571 55.1683L43.7969 51.608" stroke="white" stroke-width="1.8125" stroke-linecap="round" stroke-linejoin="round"/>
</svg>
