<svg width="40" height="40" viewBox="0 0 40 40" fill="none" xmlns="http://www.w3.org/2000/svg">
<g clip-path="url(#clip0_3907_47625)">
<circle cx="20" cy="20" r="20" fill="#F7F8F9"/>
<path d="M12 26.6341C12 24.2511 12.6101 21.9077 13.7721 19.8272V19.8272C14.5778 18.3846 15.0008 16.7598 15.0008 15.1074V10H19V15.1076C19 16.7598 19.4229 18.3846 20.2284 19.8272V19.8272C21.3901 21.9078 22 24.251 22 26.6339V33H12V26.6341Z" fill="#00D0DC"/>
<path d="M15 7H19V10H15V7Z" fill="#02C5D0"/>
<rect x="13" y="25" width="8" height="5" fill="#A7FAFF"/>
<path fill-rule="evenodd" clip-rule="evenodd" d="M23.4957 15.0366C23.4988 15.0156 23.5169 15 23.5381 15H29.4641C29.4854 15 29.5035 15.0156 29.5066 15.0366L30.3336 20.5498C30.6599 22.7251 29.1191 24.6971 27.0009 24.9683V32H29.0009V33H27.0009H26.0009H24.0009V32H26.0009V24.9682C23.8829 24.6968 22.3424 22.7249 22.6687 20.5498L23.4957 15.0366Z" fill="#A7FAFF"/>
</g>
<defs>
<clipPath id="clip0_3907_47625">
<rect width="40" height="40" fill="white"/>
</clipPath>
</defs>
</svg>
