<svg width="160" height="160" viewBox="0 0 160 160" fill="none" xmlns="http://www.w3.org/2000/svg">
<path fill-rule="evenodd" clip-rule="evenodd" d="M130 54C130 54 130 46 122 46L55 46L63 54V62L130 62V54Z" fill="url(#paint0_linear_798_23908)"/>
<path fill-rule="evenodd" clip-rule="evenodd" d="M122 46C114 46 114 54 114 54V120C114 120 114 131 105 131H38L47 120V54C47 54 47 46 55 46H122Z" fill="#F0F2F4"/>
<path fill-rule="evenodd" clip-rule="evenodd" d="M96 115H31V123C31 123 31 131 40 131H105C96 131 96 123 96 123V115Z" fill="url(#paint1_linear_798_23908)"/>
<rect x="59" y="71" width="43" height="3" fill="#01D1DD"/>
<rect x="59" y="81" width="43" height="3" fill="#01D1DD"/>
<rect x="59" y="91" width="43" height="3" fill="#01D1DD"/>
<rect x="59" y="101" width="25" height="3" fill="#01D1DD"/>
<circle cx="54" cy="47" r="18" fill="#01D1DD"/>
<path d="M52.0286 53.8963C51.5951 54.3236 50.8989 54.3236 50.4654 53.8963L45.6488 49.148C45.2017 48.7073 45.2017 47.986 45.6488 47.5454V47.5454C46.0868 47.1135 46.7906 47.1135 47.2286 47.5454L51.247 51.5067L60.7766 42.1122C61.2147 41.6804 61.9184 41.6804 62.3565 42.1122V42.1122C62.8035 42.5529 62.8035 43.2742 62.3565 43.7148L52.0286 53.8963Z" fill="white"/>
<defs>
<linearGradient id="paint0_linear_798_23908" x1="121" y1="62" x2="120.5" y2="42" gradientUnits="userSpaceOnUse">
<stop stop-color="#04D9E6"/>
<stop offset="1" stop-color="#03D3DF"/>
</linearGradient>
<linearGradient id="paint1_linear_798_23908" x1="78.2237" y1="115" x2="78.2237" y2="136" gradientUnits="userSpaceOnUse">
<stop stop-color="#03D9E6"/>
<stop offset="1" stop-color="#03D3DF"/>
</linearGradient>
</defs>
</svg>
