<svg width="30" height="30" viewBox="0 0 30 30" fill="none" xmlns="http://www.w3.org/2000/svg">
<g clip-path="url(#clip0_4066_37347)">
<path d="M30 14.9992C30 6.71536 23.2843 0 15 0C6.71573 0 0 6.71536 0 14.9992C0 23.283 6.71573 29.9984 15 29.9984C23.2843 29.9984 30 23.283 30 14.9992Z" fill="#F7F8F9"/>
<mask id="mask0_4066_37347" style="mask-type:luminance" maskUnits="userSpaceOnUse" x="8" y="8" width="14" height="14">
<path d="M21.82 8.18164H8.18359V21.8173H21.82V8.18164Z" fill="white"/>
</mask>
<g mask="url(#mask0_4066_37347)">
<path d="M21.5455 15.1543C21.5455 14.6709 21.5021 14.2061 21.4215 13.7598H15V16.397H18.6694C18.5114 17.2493 18.031 17.9713 17.3089 18.4548V20.1654H19.5124C20.8017 18.9785 21.5455 17.2306 21.5455 15.1543Z" fill="#8691A2"/>
<path d="M15.0032 21.8174C16.8441 21.8174 18.3874 21.2068 19.5155 20.1656L17.312 18.4549C16.7015 18.864 15.9205 19.1057 15.0032 19.1057C13.2273 19.1057 11.7242 17.9064 11.188 16.2949H8.91016V18.0613C10.0321 20.2895 12.3379 21.8174 15.0032 21.8174Z" fill="#B3B9C4"/>
<path d="M11.1867 16.2947C11.0503 15.8856 10.9728 15.4487 10.9728 14.9993C10.9728 14.5499 11.0503 14.113 11.1867 13.7039V11.9375H8.90878C8.44705 12.8579 8.18359 13.8992 8.18359 14.9993C8.18359 16.0994 8.44705 17.1407 8.90878 18.0611L11.1867 16.2947Z" fill="#8691A2"/>
<path d="M15.0032 10.8933C16.0041 10.8933 16.9029 11.2372 17.6095 11.9128L19.5651 9.95734C18.3844 8.85722 16.8409 8.18164 15.0032 8.18164C12.3379 8.18164 10.0321 9.70944 8.91016 11.9376L11.188 13.7041C11.7242 12.0926 13.2273 10.8933 15.0032 10.8933Z" fill="#B3B9C4"/>
</g>
</g>
<defs>
<clipPath id="clip0_4066_37347">
<rect width="30" height="29.9984" fill="white"/>
</clipPath>
</defs>
</svg>
