<svg width="32" height="32" viewBox="0 0 32 32" fill="none" xmlns="http://www.w3.org/2000/svg">
<path d="M4 6.35881C4 6.16065 4.16065 6 4.35882 6H24.4525C25.4433 6 26.2465 6.80323 26.2465 7.79408V23.5819C26.2465 24.5728 25.4433 25.376 24.4525 25.376H4.35881C4.16065 25.376 4 25.2154 4 25.0172V6.35881Z" fill="#00D0DC"/>
<path d="M28.1831 11.7412C28.302 11.7412 28.3984 11.8376 28.3984 11.9565L28.3984 19.4199C28.3984 19.5388 28.302 19.6351 28.1831 19.6351L19.4281 19.6351C17.2482 19.6351 15.4811 17.868 15.4811 15.6882C15.4811 13.5083 17.2482 11.7412 19.4281 11.7412L28.1831 11.7412Z" fill="#A7FAFF"/>
<circle cx="19.6811" cy="15.6059" r="1.38144" transform="rotate(-180 19.6811 15.6059)" fill="#00D0DC"/>
</svg>
