<svg width="32" height="32" viewBox="0 0 32 32" fill="none" xmlns="http://www.w3.org/2000/svg">
<g id="Group 2792">
<rect id="Rectangle 132" width="32" height="32" rx="6.4" fill="#00D5E1"/>
<g id="Group 107">
<rect id="Rectangle 133" x="9.21094" y="6.44141" width="5.2" height="20" rx="0.831169" fill="white"/>
<path id="Rectangle 134" d="M10.0109 20.0415C9.56911 20.0415 9.21094 19.6833 9.21094 19.2415L9.21094 7.2415C9.21094 6.79967 9.56911 6.4415 10.0109 6.4415L18.8109 6.4415C22.3456 6.4415 25.2109 9.30688 25.2109 12.8415L25.2109 13.6415C25.2109 17.1761 22.3456 20.0415 18.8109 20.0415L10.0109 20.0415Z" fill="white"/>
<path id="Rectangle 135" d="M8.69063 15.5844C8.2488 15.5844 7.89062 15.2262 7.89062 14.7844L7.89062 11.6051C7.89062 11.1633 8.2488 10.8051 8.69062 10.8051L18.3841 10.8051C19.7039 10.8051 20.7737 11.875 20.7737 13.1947C20.7737 14.5145 19.7039 15.5844 18.3841 15.5844L8.69063 15.5844Z" fill="#A7FAFF"/>
<circle id="Ellipse 78" cx="17.6125" cy="13.2415" r="0.8" fill="#00D0DC"/>
</g>
</g>
</svg>
