<svg width="28" height="28" viewBox="0 0 28 28" fill="none" xmlns="http://www.w3.org/2000/svg">
<path d="M17.5556 18.4444L22 14M22 14L17.5556 9.55556M22 14H11.3333M14 18.4444C14 19.2711 14 19.6844 13.9091 20.0235C13.6626 20.9438 12.9438 21.6626 12.0235 21.9091C11.6844 22 11.2711 22 10.4444 22H10C8.75749 22 8.13623 22 7.64618 21.797C6.99277 21.5264 6.47364 21.0072 6.20299 20.3538C6 19.8638 6 19.2425 6 18V10C6 8.75749 6 8.13623 6.20299 7.64618C6.47364 6.99277 6.99277 6.47364 7.64618 6.20299C8.13623 6 8.75749 6 10 6H10.4444C11.2711 6 11.6844 6 12.0235 6.09086C12.9438 6.33744 13.6626 7.05624 13.9091 7.97648C14 8.31559 14 8.72891 14 9.55556" stroke="#B3B9C4" stroke-width="1.7" stroke-linecap="round" stroke-linejoin="round"/>
</svg>
