<svg width="40" height="40" viewBox="0 0 40 40" fill="none" xmlns="http://www.w3.org/2000/svg">
<g clip-path="url(#clip0_754_24325)">
<g clip-path="url(#clip1_754_24325)">
<path d="M40.0022 20C40.0022 8.9543 31.0474 0 20.0011 0C8.95479 0 0 8.9543 0 20C0 31.0457 8.95479 40 20.0011 40C31.0474 40 40.0022 31.0457 40.0022 20Z" fill="#F7F8F9"/>
<mask id="mask0_754_24325" style="mask-type:luminance" maskUnits="userSpaceOnUse" x="10" y="10" width="20" height="20">
<path d="M29.0891 10.9092H10.9062V29.091H29.0891V10.9092Z" fill="white"/>
</mask>
<g mask="url(#mask0_754_24325)">
<path d="M28.7277 20.2067C28.7277 19.5621 28.6699 18.9423 28.5625 18.3472H20V21.8637H24.8928C24.6821 23.0001 24.0416 23.9629 23.0787 24.6075V26.8885H26.0169C27.736 25.3059 28.7277 22.9753 28.7277 20.2067Z" fill="#4285F4"/>
<path d="M19.9994 29.0912C22.4541 29.0912 24.512 28.2771 26.0162 26.8887L23.0781 24.6077C22.264 25.1532 21.2226 25.4754 19.9994 25.4754C17.6315 25.4754 15.6273 23.8763 14.9123 21.7275H11.875V24.0829C13.371 27.054 16.4455 29.0912 19.9994 29.0912Z" fill="#34A853"/>
<path d="M14.9106 21.7274C14.7287 21.1819 14.6255 20.5993 14.6255 20.0001C14.6255 19.4009 14.7287 18.8183 14.9106 18.2728V15.9175H11.8732C11.2575 17.1448 10.9062 18.5332 10.9062 20.0001C10.9062 21.467 11.2575 22.8555 11.8732 24.0828L14.9106 21.7274Z" fill="#FBBC04"/>
<path d="M19.9994 14.5249C21.3341 14.5249 22.5326 14.9835 23.4748 15.8844L26.0824 13.2769C24.508 11.81 22.4499 10.9092 19.9994 10.9092C16.4455 10.9092 13.371 12.9464 11.875 15.9175L14.9123 18.2728C15.6273 16.1241 17.6315 14.5249 19.9994 14.5249Z" fill="#E94235"/>
</g>
</g>
</g>
<defs>
<clipPath id="clip0_754_24325">
<rect width="40" height="40" fill="white"/>
</clipPath>
<clipPath id="clip1_754_24325">
<rect width="40.0022" height="40" fill="white"/>
</clipPath>
</defs>
</svg>
