<svg width="112" height="112" viewBox="0 0 112 112" fill="none" xmlns="http://www.w3.org/2000/svg">
<path fill-rule="evenodd" clip-rule="evenodd" d="M26.3086 67.4985C26.3086 67.4981 26.3086 67.4978 26.3086 67.4975L26.3086 19.1922C26.3086 17.4292 27.7378 16 29.5008 16H65.1113C79.2151 16 90.6486 27.4335 90.6486 41.5373V45.1523C90.6486 59.2562 79.2152 70.6897 65.1113 70.6897H47.2191V93.1097C47.2191 94.9414 45.7342 96.4262 43.9026 96.4262H29.6251C27.7935 96.4262 26.3086 94.9414 26.3086 93.1097V67.4985Z" fill="white"/>
<path d="M24.1922 52.7656C22.4292 52.7656 21 51.3364 21 49.5735L21 36.7391C21 34.9761 22.4292 33.5469 24.1922 33.5469L63.1969 33.5469C68.504 33.5469 72.8063 37.8492 72.8063 43.1563V43.1563C72.8063 48.4634 68.504 52.7656 63.1969 52.7656L24.1922 52.7656Z" fill="#A7FAFF"/>
<ellipse cx="60.0842" cy="43.345" rx="3.217" ry="3.21704" fill="#00D0DC"/>
</svg>
