<svg width="160" height="160" viewBox="0 0 160 160" fill="none" xmlns="http://www.w3.org/2000/svg">
<circle cx="47.3047" cy="52.1763" r="6.5" fill="#F0F2F4"/>
<path d="M20.8047 69.1763L15.3047 77.1763C30.3047 88.6763 46.3047 84.1763 54.8047 76.1762L61.8047 82.1762L77.8047 65.6762L70.8047 59.6762C80.8047 46.6762 95.3047 53.1762 99.8047 58.1762L105.805 51.1764C92.8047 41.1764 71.7578 36.1028 52.7578 61.6027C39.3047 79.6582 27.8047 74.1763 20.8047 69.1763Z" fill="#00D5E1"/>
<path d="M40.8047 103.676L77.8047 65.6763C92.8047 77.1763 106.138 73.5096 109.805 68.6763L117.305 75.6763C105.805 90.1763 85.9714 86.5096 79.3047 80.1763L50.3047 112.176L40.8047 103.676Z" fill="#D9F9FB"/>
<path d="M39.5487 102.217L50.3047 112.176L44.8047 117.676L34.268 107.92C32.6502 106.422 32.6013 103.88 34.1604 102.321C35.6369 100.844 38.0164 100.798 39.5487 102.217Z" fill="#00D5E1"/>
<path d="M120.314 78.7956L109.826 68.6939L115.309 63.1767L125.87 72.8938C127.516 74.408 127.624 76.9688 126.112 78.6165C124.573 80.2944 121.954 80.3752 120.314 78.7956Z" fill="#00D5E1"/>
<path fill-rule="evenodd" clip-rule="evenodd" d="M13.5451 66.0638C12.8213 65.8496 12.0608 66.2628 11.8467 66.9867C11.7197 67.4158 11.8132 67.8578 12.0612 68.1912C11.702 68.3464 11.4117 68.6539 11.292 69.0585C11.1647 69.4887 11.259 69.9318 11.5085 70.2655C11.152 70.4215 10.8642 70.7279 10.7451 71.1303C10.6178 71.5606 10.7122 72.0038 10.9617 72.3375C10.6052 72.4935 10.3173 72.7999 10.1982 73.2023C9.98406 73.9261 10.3972 74.6866 11.1211 74.9007L11.3174 74.9588L15.3069 77.1758L20.8069 69.1758L17.6749 66.267C17.3234 65.9405 16.8662 65.7513 16.3869 65.7338L15.878 65.7152C15.3126 65.6945 14.7701 65.9141 14.3797 66.3107L13.5451 66.0638Z" fill="#F0F2F4"/>
<path fill-rule="evenodd" clip-rule="evenodd" d="M105.918 62.1754C106.617 62.4854 107.435 62.1697 107.745 61.4702C107.93 61.0545 107.893 60.5969 107.686 60.2289C108.064 60.1187 108.394 59.8485 108.566 59.46C108.75 59.045 108.713 58.5883 108.507 58.2206C108.889 58.1116 109.221 57.8406 109.394 57.4497C109.578 57.0348 109.542 56.578 109.336 56.2103C109.717 56.1013 110.049 55.8303 110.222 55.4394C110.532 54.74 110.216 53.9216 109.517 53.6115L108.673 53.2373C108.599 53.2048 108.525 53.1792 108.449 53.1602L105.806 51.176L99.8058 58.176L101.822 61.0018C102.13 61.4335 102.596 61.7252 103.119 61.8129L103.801 61.9272C104.208 61.9954 104.623 61.9356 104.99 61.761C105.017 61.7752 105.045 61.7886 105.073 61.8012L105.918 62.1754Z" fill="#F0F2F4"/>
<path fill-rule="evenodd" clip-rule="evenodd" d="M132.475 101.221C132.475 101.447 132.45 101.667 132.401 101.878C132.612 101.829 132.832 101.803 133.057 101.803C134.664 101.803 135.967 103.106 135.967 104.713C135.967 106.32 134.664 107.623 133.057 107.623C132.832 107.623 132.612 107.597 132.401 107.549C132.45 107.76 132.475 107.979 132.475 108.205C132.475 109.812 131.173 111.115 129.566 111.115C127.959 111.115 126.656 109.812 126.656 108.205C126.656 108.006 126.676 107.811 126.714 107.623H122V101.803H126.714C126.676 101.615 126.656 101.421 126.656 101.221C126.656 99.6143 127.959 98.3115 129.566 98.3115C131.173 98.3115 132.475 99.6143 132.475 101.221Z" fill="#9DEFF6"/>
<path fill-rule="evenodd" clip-rule="evenodd" d="M147.6 91.9098C147.6 92.1355 147.575 92.3552 147.526 92.5661C147.737 92.5175 147.957 92.4918 148.182 92.4918C149.789 92.4918 151.092 93.7946 151.092 95.4016C151.092 97.0087 149.789 98.3115 148.182 98.3115C147.957 98.3115 147.737 98.2858 147.526 98.2372C147.575 98.4481 147.6 98.6678 147.6 98.8934C147.6 100.501 146.298 101.803 144.691 101.803C143.084 101.803 141.781 100.501 141.781 98.8934C141.781 98.6941 141.801 98.4995 141.839 98.3115H137.125V92.4918H141.839C141.801 92.3038 141.781 92.1091 141.781 91.9098C141.781 90.3028 143.084 89 144.691 89C146.298 89 147.6 90.3028 147.6 91.9098Z" fill="#D9F9FB"/>
</svg>
