<svg width="32" height="32" viewBox="0 0 32 32" fill="none" xmlns="http://www.w3.org/2000/svg">
<rect x="3" y="3" width="26" height="26" rx="8" fill="white"/>
<g clip-path="url(#clip0_754_24185)">
<path d="M19.6004 9.49902C22.0627 9.49902 24.0523 11.4886 24.0523 13.951C24.0523 15.0738 23.6386 16.0784 22.9492 16.8664L23.4219 18.3241L21.8657 17.7725C21.196 18.1665 20.4277 18.4029 19.6004 18.4029C17.138 18.4029 15.1484 16.4133 15.1484 13.951C15.1484 11.4886 17.138 9.49902 19.6004 9.49902Z" fill="url(#paint0_linear_754_24185)"/>
<path d="M13.9325 12.9082C11.2141 12.9082 9.00781 15.1145 9.00781 17.8329C9.00781 19.0739 9.46088 20.1968 10.2291 21.0635L9.71697 22.6788L11.4505 22.0681C12.1793 22.5015 13.0461 22.7576 13.9522 22.7576C16.6706 22.7576 18.8769 20.5513 18.8769 17.8329C18.8769 15.1145 16.6706 12.9082 13.9325 12.9082Z" fill="#00D0DC"/>
<path d="M12.0003 18.3267C12.2723 18.3267 12.4928 18.1063 12.4928 17.8343C12.4928 17.5623 12.2723 17.3418 12.0003 17.3418C11.7283 17.3418 11.5078 17.5623 11.5078 17.8343C11.5078 18.1063 11.7283 18.3267 12.0003 18.3267Z" fill="#EBF3F8"/>
<path d="M13.9143 18.3267C14.1863 18.3267 14.4068 18.1063 14.4068 17.8343C14.4068 17.5623 14.1863 17.3418 13.9143 17.3418C13.6424 17.3418 13.4219 17.5623 13.4219 17.8343C13.4219 18.1063 13.6424 18.3267 13.9143 18.3267Z" fill="#EBF3F8"/>
<path d="M15.8362 18.3267C16.1082 18.3267 16.3287 18.1063 16.3287 17.8343C16.3287 17.5623 16.1082 17.3418 15.8362 17.3418C15.5642 17.3418 15.3438 17.5623 15.3438 17.8343C15.3438 18.1063 15.5642 18.3267 15.8362 18.3267Z" fill="#EBF3F8"/>
</g>
<defs>
<linearGradient id="paint0_linear_754_24185" x1="28.4057" y1="7.72613" x2="15.7788" y2="17.9104" gradientUnits="userSpaceOnUse">
<stop offset="0.18" stop-color="#00D0DC"/>
<stop offset="0.37" stop-color="#00C5D2"/>
<stop offset="0.71" stop-color="#00A7B7"/>
<stop offset="0.79" stop-color="#00A0B1"/>
</linearGradient>
<clipPath id="clip0_754_24185">
<rect width="15.0499" height="13.277" fill="white" transform="translate(9 9.5)"/>
</clipPath>
</defs>
</svg>
