<svg width="32" height="32" viewBox="0 0 32 32" fill="none" xmlns="http://www.w3.org/2000/svg">
<rect x="3" y="3" width="26" height="26" rx="8" fill="#F7F8F9"/>
<g clip-path="url(#clip0_754_24185)">
<path d="M19.6004 9.49927C22.0627 9.49927 24.0523 11.4888 24.0523 13.9512C24.0523 15.074 23.6386 16.0787 22.9492 16.8666L23.4219 18.3243L21.8657 17.7728C21.196 18.1667 20.4277 18.4031 19.6004 18.4031C17.138 18.4031 15.1484 16.4135 15.1484 13.9512C15.1484 11.4888 17.138 9.49927 19.6004 9.49927Z" fill="url(#paint0_linear_754_24185)"/>
<path d="M13.9325 12.9082C11.2141 12.9082 9.00781 15.1145 9.00781 17.8329C9.00781 19.0739 9.46088 20.1968 10.2291 21.0635L9.71697 22.6788L11.4505 22.0681C12.1793 22.5015 13.0461 22.7576 13.9522 22.7576C16.6706 22.7576 18.8769 20.5513 18.8769 17.8329C18.8769 15.1145 16.6706 12.9082 13.9325 12.9082Z" fill="#00D0DC"/>
<path d="M12.0003 18.3265C12.2723 18.3265 12.4928 18.106 12.4928 17.834C12.4928 17.562 12.2723 17.3416 12.0003 17.3416C11.7283 17.3416 11.5078 17.562 11.5078 17.834C11.5078 18.106 11.7283 18.3265 12.0003 18.3265Z" fill="#EBF3F8"/>
<path d="M13.9143 18.3265C14.1863 18.3265 14.4068 18.106 14.4068 17.834C14.4068 17.562 14.1863 17.3416 13.9143 17.3416C13.6424 17.3416 13.4219 17.562 13.4219 17.834C13.4219 18.106 13.6424 18.3265 13.9143 18.3265Z" fill="#EBF3F8"/>
<path d="M15.8362 18.3265C16.1082 18.3265 16.3287 18.106 16.3287 17.834C16.3287 17.562 16.1082 17.3416 15.8362 17.3416C15.5642 17.3416 15.3438 17.562 15.3438 17.834C15.3438 18.106 15.5642 18.3265 15.8362 18.3265Z" fill="#EBF3F8"/>
</g>
<defs>
<linearGradient id="paint0_linear_754_24185" x1="28.4057" y1="7.72638" x2="15.7788" y2="17.9107" gradientUnits="userSpaceOnUse">
<stop offset="0.18" stop-color="#00D0DC"/>
<stop offset="0.37" stop-color="#00C5D2"/>
<stop offset="0.71" stop-color="#00A7B7"/>
<stop offset="0.79" stop-color="#00A0B1"/>
</linearGradient>
<clipPath id="clip0_754_24185">
<rect width="15.0499" height="13.277" fill="white" transform="translate(9 9.5)"/>
</clipPath>
</defs>
</svg>
