<svg width="32" height="32" viewBox="0 0 32 32" fill="none" xmlns="http://www.w3.org/2000/svg">
<rect x="3" y="3" width="26" height="26" rx="8" fill="#F7F8F9"/>
<path d="M18.7778 19.4935L18.7707 17.4499C16.3454 17.0893 13.7998 17.8247 11.933 19.6915C11.4663 20.1581 11.0633 20.6743 10.7451 21.2188C10.4764 21.6572 9.79756 21.4875 9.80463 20.9713C9.83998 18.8429 10.6602 16.7216 12.2866 15.0953C14.0685 13.3134 16.4373 12.5002 18.7707 12.6275L18.7707 10.591C18.7707 10.1384 19.3081 9.92631 19.6193 10.2374L24.067 14.6851C24.265 14.8831 24.265 15.1943 24.067 15.3922L19.6193 19.8399C19.3152 20.1581 18.7707 19.9389 18.7778 19.4935Z" fill="url(#paint0_linear_754_24187)"/>
<defs>
<linearGradient id="paint0_linear_754_24187" x1="24" y1="11" x2="7.5" y2="24" gradientUnits="userSpaceOnUse">
<stop offset="0.467663" stop-color="#00D0DC"/>
<stop offset="1" stop-color="#018D9A"/>
</linearGradient>
</defs>
</svg>
