<svg width="24" height="24" viewBox="0 0 24 24" fill="none" xmlns="http://www.w3.org/2000/svg">
<path d="M18.8765 6C18.2548 6 17.753 6.5025 17.753 7.125V10.875C17.753 11.085 17.5882 11.25 17.3785 11.25C17.1687 11.25 17.0039 11.085 17.0039 10.875V4.875C17.0039 4.2525 16.5021 3.75 15.8804 3.75C15.2587 3.75 14.7569 4.2525 14.7569 4.875V10.875C14.7569 11.085 14.5921 11.25 14.3824 11.25C14.1727 11.25 14.0079 11.085 14.0079 10.875V4.125C14.0079 3.5025 13.5061 3 12.8844 3C12.2627 3 11.7609 3.5025 11.7609 4.125V10.8675C11.7609 11.0775 11.5961 11.2425 11.3864 11.2425C11.1766 11.2425 11.0118 11.0775 11.0118 10.8675V6.375C11.0118 5.7525 10.51 5.25 9.88833 5.25C9.26664 5.25 8.76481 5.7525 8.76481 6.375V14.9325L5.67887 13.17C5.24445 12.9225 4.70516 12.99 4.34563 13.335C3.89622 13.77 3.88124 14.49 4.32316 14.9325L9.40147 20.1C9.96323 20.6775 10.7272 21 11.5362 21H17.0039C18.6593 21 20 19.6575 20 18V7.125C20 6.5025 19.4982 6 18.8765 6Z" fill="#FD7B7B"/>
</svg>
