<svg width="40" height="40" viewBox="0 0 40 40" fill="none" xmlns="http://www.w3.org/2000/svg">
<g id="Frame 7471">
<g id="White-Logo-Square-">
<path id="Rectangle" d="M5 19.9992C5 28.283 11.7162 34.9984 20 34.9984C28.2838 34.9984 35 28.283 35 19.9992C35 11.7154 28.2838 5 20 5C11.7162 5 5 11.7154 5 19.9992Z" fill="#F7F8F9"/>
<path id="&#239;&#163;&#191;" d="M20.1483 15.88C20.7156 15.88 21.4267 15.4847 21.8501 14.9576C22.2337 14.48 22.5133 13.813 22.5133 13.1459C22.5133 13.0553 22.5053 12.9647 22.4893 12.8906C21.8581 12.9153 21.0991 13.3271 20.6436 13.8788C20.2841 14.2988 19.9565 14.9576 19.9565 15.6329C19.9565 15.7317 19.9725 15.8306 19.9805 15.8635C20.0204 15.8717 20.0843 15.88 20.1483 15.88ZM18.1507 25.8445C18.9258 25.8445 19.2694 25.3092 20.2362 25.3092C21.2189 25.3092 21.4347 25.828 22.2976 25.828C23.1445 25.828 23.7118 25.021 24.2472 24.2304C24.8464 23.3245 25.0941 22.4351 25.1101 22.394C25.0542 22.3775 23.4322 21.694 23.4322 19.7752C23.4322 18.1117 24.7106 17.3623 24.7825 17.3046C23.9355 16.0529 22.6491 16.02 22.2976 16.02C21.3468 16.02 20.5717 16.6129 20.0843 16.6129C19.557 16.6129 18.8619 16.0529 18.0389 16.0529C16.4728 16.0529 14.8828 17.387 14.8828 19.9069C14.8828 21.4716 15.4741 23.1269 16.2012 24.1974C16.8244 25.1033 17.3677 25.8445 18.1507 25.8445Z" fill="#B3B9C4"/>
</g>
</g>
</svg>
