<svg width="320" height="568" viewBox="0 0 320 568" fill="none" xmlns="http://www.w3.org/2000/svg">
<g clip-path="url(#clip0_6576_26926)">
<rect width="320" height="568" fill="white"/>
<g clip-path="url(#clip1_6576_26926)">
<rect width="320" height="568" fill="#E7FCFF"/>
<g opacity="0.6">
<g opacity="0.3">
<path d="M155.488 -5.8457L173.822 -0.933203L172.594 3.65022V3.65022C166.09 4.28292 159.577 2.53773 154.26 -1.26228V-1.26228L155.488 -5.8457Z" fill="#02C5D0"/>
<path fill-rule="evenodd" clip-rule="evenodd" d="M193.104 -17.8789L147.27 -30.1602L146.432 -27.0358L146.153 -25.9934L146.185 -25.9849C145.721 -23.7053 145.707 -21.3413 146.147 -18.9943C146.656 -16.2844 147.759 -13.6502 149.395 -11.2421C151.03 -8.83406 153.166 -6.69925 155.68 -4.95959C158.194 -3.21993 161.037 -1.90949 164.046 -1.10309C167.056 -0.296696 170.173 -0.0101292 173.22 -0.259759C176.267 -0.509389 179.184 -1.29032 181.804 -2.55798C184.425 -3.82563 186.698 -5.55518 188.493 -7.64786C190.047 -9.46033 191.218 -11.5145 191.956 -13.7207L191.987 -13.7122L192.267 -14.7545L193.104 -17.8789Z" fill="#00D0DC"/>
</g>
<g opacity="0.3">
<rect x="250.965" y="-11.9688" width="11.8628" height="37.9609" transform="rotate(15 250.965 -11.9688)" fill="#00D0DC"/>
<rect x="285.348" y="-2.75391" width="11.8628" height="37.9609" transform="rotate(15 285.348 -2.75391)" fill="#00D0DC"/>
<path d="M245.688 -6.01367L249.125 -5.09258L242.984 17.8245L239.547 16.9035L245.688 -6.01367Z" fill="#A7FAFF"/>
<path d="M294.957 7.18945L298.395 8.11055L292.254 31.0277L288.816 30.1066L294.957 7.18945Z" fill="#A7FAFF"/>
<path d="M256.59 12.875L258.432 5.99986L281.349 12.1405L279.507 19.0156L256.59 12.875Z" fill="#A7FAFF"/>
<path d="M237.117 7.65234L238.959 0.777207L243.543 2.00533L241.701 8.88047L237.117 7.65234Z" fill="#00D0DC"/>
<path d="M294.398 23.0059L296.241 16.1307L300.824 17.3588L298.982 24.234L294.398 23.0059Z" fill="#00D0DC"/>
</g>
</g>
<g opacity="0.6">
<g opacity="0.3">
<path d="M87.5898 49.7461L133.424 62.0273L126.055 89.5279L80.2211 77.2466L87.5898 49.7461Z" fill="#A7FAFF"/>
<path fill-rule="evenodd" clip-rule="evenodd" d="M133.094 63.1663L133.124 63.1745L134.045 59.737L134.824 47.6644L93.5731 36.6112L88.211 47.4557L87.4894 50.1489C87.4675 50.2199 87.4469 50.2916 87.4275 50.364C87.4081 50.4364 87.3901 50.5088 87.3735 50.5813L87.2899 50.8933L87.31 50.8987C86.7951 53.8867 88.6355 56.8283 91.6216 57.6284C94.6077 58.4286 97.6724 56.8012 98.7205 53.9561L98.7731 53.9702C98.2605 56.9569 100.101 59.8963 103.085 60.6961C106.07 61.4959 109.134 59.8703 110.183 57.0275L110.232 57.0406C109.718 60.028 111.559 62.9685 114.544 63.7684C117.529 64.5684 120.593 62.942 121.642 60.098L121.684 60.1091C121.171 63.0958 123.011 66.0352 125.996 66.835C128.981 67.6348 132.044 66.0092 133.094 63.1663Z" fill="#00D0DC"/>
<path opacity="0.6" d="M100.562 65.5059L114.313 69.1902L110.014 85.2322L96.2641 81.5478L100.562 65.5059Z" fill="#00D0DC"/>
</g>
<g opacity="0.3">
<rect x="33.1016" y="12.6074" width="18.9804" height="47.4511" transform="rotate(60 33.1016 12.6074)" fill="#00D0DC"/>
<rect x="33.1016" y="12.6074" width="18.9804" height="7.11767" transform="rotate(60 33.1016 12.6074)" fill="#A7FAFF"/>
<mask id="mask0_6576_26926" style="mask-type:alpha" maskUnits="userSpaceOnUse" x="-16" y="36" width="18" height="17">
<path d="M1.50585 52.7735L-7.98438 36.3359L-15.5674 51.6724L1.50585 52.7735Z" fill="#00D0DC"/>
</mask>
<g mask="url(#mask0_6576_26926)">
<path d="M1.50585 52.7735L-7.98438 36.3359L-15.5674 51.6724L1.50585 52.7735Z" fill="#A7FAFF"/>
</g>
</g>
<g opacity="0.3">
<ellipse cx="203.908" cy="79.2704" rx="21.353" ry="18.9804" transform="rotate(15 203.908 79.2704)" fill="#A7FAFF"/>
<path d="M189.215 97.4414L207.549 102.354L206.32 106.937V106.937C199.816 107.57 193.303 105.825 187.987 102.025V102.025L189.215 97.4414Z" fill="#02C5D0"/>
<path fill-rule="evenodd" clip-rule="evenodd" d="M226.83 85.4082L180.996 73.127L180.159 76.2513L179.88 77.2937L179.911 77.3022C179.447 79.5818 179.434 81.9458 179.874 84.2928C180.382 87.0027 181.486 89.6369 183.121 92.045C184.757 94.453 186.893 96.5879 189.406 98.3275C191.92 100.067 194.763 101.378 197.773 102.184C200.782 102.99 203.9 103.277 206.946 103.027C209.993 102.778 212.91 101.997 215.531 100.729C218.151 99.4615 220.424 97.7319 222.219 95.6392C223.774 93.8268 224.944 91.7726 225.682 89.5664L225.714 89.575L225.993 88.5326L226.83 85.4082Z" fill="#00D0DC"/>
</g>
<g opacity="0.3">
<rect x="284.398" y="91.2402" width="11.8628" height="37.9609" transform="rotate(15 284.398 91.2402)" fill="#00D0DC"/>
<rect x="318.781" y="100.455" width="11.8628" height="37.9609" transform="rotate(15 318.781 100.455)" fill="#00D0DC"/>
<path d="M279.121 97.1953L282.559 98.1164L276.418 121.034L272.98 120.112L279.121 97.1953Z" fill="#A7FAFF"/>
<path d="M290.023 116.084L291.866 109.209L314.783 115.349L312.941 122.225L290.023 116.084Z" fill="#A7FAFF"/>
<path d="M270.551 110.861L272.393 103.986L276.976 105.214L275.134 112.089L270.551 110.861Z" fill="#00D0DC"/>
</g>
</g>
<g opacity="0.6">
<g opacity="0.3">
<path d="M122.289 153.293L168.123 165.574L160.755 193.075L114.92 180.794L122.289 153.293Z" fill="#A7FAFF"/>
<path fill-rule="evenodd" clip-rule="evenodd" d="M167.793 166.713L167.823 166.721L168.745 163.284L169.523 151.211L128.272 140.158L122.91 151.003L122.189 153.696C122.167 153.767 122.146 153.838 122.127 153.911C122.107 153.983 122.089 154.056 122.073 154.128L121.989 154.44L122.009 154.446C121.494 157.434 123.335 160.375 126.321 161.175C129.307 161.975 132.372 160.348 133.42 157.503L133.472 157.517C132.96 160.504 134.8 163.443 137.785 164.243C140.769 165.043 143.833 163.417 144.882 160.574L144.931 160.587C144.417 163.575 146.258 166.515 149.243 167.315C152.229 168.115 155.293 166.489 156.341 163.645L156.383 163.656C155.87 166.643 157.71 169.582 160.695 170.382C163.68 171.182 166.743 169.556 167.793 166.713Z" fill="#00D0DC"/>
<path opacity="0.6" d="M135.262 169.053L149.012 172.737L144.714 188.779L130.963 185.095L135.262 169.053Z" fill="#00D0DC"/>
</g>
<g opacity="0.3">
<rect x="67.9727" y="116.201" width="18.9804" height="47.4511" transform="rotate(60 67.9727 116.201)" fill="#00D0DC"/>
<rect x="67.9727" y="116.201" width="18.9804" height="7.11767" transform="rotate(60 67.9727 116.201)" fill="#A7FAFF"/>
<mask id="mask1_6576_26926" style="mask-type:alpha" maskUnits="userSpaceOnUse" x="19" y="139" width="18" height="18">
<path d="M36.3769 156.367L26.8867 139.93L19.3037 155.266L36.3769 156.367Z" fill="#00D0DC"/>
</mask>
<g mask="url(#mask1_6576_26926)">
<path d="M36.3769 156.367L26.8867 139.93L19.3037 155.266L36.3769 156.367Z" fill="#A7FAFF"/>
<path d="M26.9692 159.055L19.8516 146.727L15.1916 157.636L26.9692 159.055Z" fill="#00D0DC"/>
</g>
</g>
<g opacity="0.3">
<ellipse cx="238.893" cy="182.895" rx="21.353" ry="18.9804" transform="rotate(15 238.893 182.895)" fill="#A7FAFF"/>
<path d="M224.199 201.066L242.533 205.979L241.305 210.562V210.562C234.801 211.195 228.288 209.45 222.971 205.65V205.65L224.199 201.066Z" fill="#02C5D0"/>
<path fill-rule="evenodd" clip-rule="evenodd" d="M261.815 189.033L215.98 176.752L215.143 179.876L214.864 180.919L214.896 180.927C214.432 183.207 214.418 185.571 214.858 187.918C215.367 190.628 216.47 193.262 218.106 195.67C219.741 198.078 221.877 200.213 224.391 201.953C226.905 203.692 229.748 205.003 232.757 205.809C235.767 206.615 238.884 206.902 241.931 206.652C244.978 206.403 247.895 205.622 250.515 204.354C253.136 203.086 255.408 201.357 257.204 199.264C258.758 197.452 259.928 195.398 260.666 193.191L260.698 193.2L260.978 192.158L261.815 189.033Z" fill="#00D0DC"/>
</g>
<g opacity="0.3">
<rect x="319.68" y="194.943" width="11.8628" height="37.9609" transform="rotate(15 319.68 194.943)" fill="#00D0DC"/>
<path d="M314.402 200.898L317.84 201.82L311.699 224.737L308.262 223.816L314.402 200.898Z" fill="#A7FAFF"/>
<path d="M305.832 214.564L307.674 207.689L312.258 208.917L310.415 215.793L305.832 214.564Z" fill="#00D0DC"/>
</g>
</g>
<g opacity="0.6">
<g opacity="0.3">
<path d="M160.23 257.713L206.065 269.994L198.696 297.495L152.862 285.213L160.23 257.713Z" fill="#A7FAFF"/>
<path fill-rule="evenodd" clip-rule="evenodd" d="M205.734 271.133L205.765 271.141L206.686 267.704L207.465 255.631L166.214 244.578L160.852 255.423L160.13 258.116C160.108 258.187 160.087 258.258 160.068 258.331C160.049 258.403 160.031 258.476 160.014 258.548L159.931 258.86L159.951 258.865C159.436 261.853 161.276 264.795 164.262 265.595C167.248 266.395 170.313 264.768 171.361 261.923L171.414 261.937C170.901 264.924 172.741 267.863 175.726 268.663C178.711 269.463 181.774 267.837 182.824 264.994L182.873 265.007C182.359 267.995 184.199 270.935 187.185 271.735C190.17 272.535 193.234 270.909 194.283 268.065L194.324 268.076C193.812 271.063 195.652 274.002 198.637 274.802C201.621 275.602 204.685 273.976 205.734 271.133Z" fill="#00D0DC"/>
<path opacity="0.6" d="M173.203 273.473L186.953 277.157L182.655 293.199L168.905 289.515L173.203 273.473Z" fill="#00D0DC"/>
</g>
<g opacity="0.3">
<rect x="105.914" y="220.621" width="18.9804" height="47.4511" transform="rotate(60 105.914 220.621)" fill="#00D0DC"/>
<rect x="105.914" y="220.621" width="18.9804" height="7.11767" transform="rotate(60 105.914 220.621)" fill="#A7FAFF"/>
<mask id="mask2_6576_26926" style="mask-type:alpha" maskUnits="userSpaceOnUse" x="57" y="244" width="18" height="17">
<path d="M74.3144 260.785L64.8242 244.348L57.2412 259.684L74.3144 260.785Z" fill="#00D0DC"/>
</mask>
<g mask="url(#mask2_6576_26926)">
<path d="M74.3144 260.785L64.8242 244.348L57.2412 259.684L74.3144 260.785Z" fill="#A7FAFF"/>
<path d="M64.9067 263.473L57.7891 251.145L53.1291 262.054L64.9067 263.473Z" fill="#00D0DC"/>
</g>
</g>
<g opacity="0.3">
<ellipse cx="276.838" cy="287.315" rx="21.353" ry="18.9804" transform="rotate(15 276.838 287.315)" fill="#A7FAFF"/>
<path d="M262.141 305.484L280.474 310.397L279.246 314.98V314.98C272.742 315.613 266.229 313.868 260.913 310.068V310.068L262.141 305.484Z" fill="#02C5D0"/>
<path fill-rule="evenodd" clip-rule="evenodd" d="M299.76 293.453L253.926 281.172L253.089 284.296L252.809 285.339L252.841 285.347C252.377 287.627 252.363 289.991 252.804 292.338C253.312 295.048 254.415 297.682 256.051 300.09C257.686 302.498 259.822 304.633 262.336 306.372C264.85 308.112 267.693 309.423 270.702 310.229C273.712 311.035 276.829 311.322 279.876 311.072C282.923 310.823 285.84 310.042 288.461 308.774C291.081 307.506 293.354 305.777 295.149 303.684C296.704 301.872 297.874 299.818 298.612 297.611L298.644 297.62L298.923 296.578L299.76 293.453Z" fill="#00D0DC"/>
</g>
</g>
<g opacity="0.6">
<g opacity="0.3">
<path d="M-27.625 207.211L18.2092 219.492L13.2967 237.826L-32.5375 225.545L-27.625 207.211Z" fill="#00D0DC"/>
<rect x="4.13672" y="235.373" width="9.49022" height="7.11767" transform="rotate(15 4.13672 235.373)" fill="#02C5D0"/>
<path d="M24.6551 222.973C24.8974 222.069 24.3609 221.14 23.4568 220.897L15.9269 218.88L14.3917 224.609L19.4663 225.969C21.7264 226.574 24.0495 225.233 24.6551 222.973V222.973Z" fill="#00D0DC"/>
<path d="M-17.065 195.302L15.019 203.899L15.918 218.878L-25.3328 207.824L-17.065 195.302Z" fill="#A7FAFF"/>
<circle cx="5.75476" cy="224.749" r="3.55883" transform="rotate(15 5.75476 224.749)" fill="#A7FAFF"/>
</g>
</g>
<g opacity="0.6">
<g opacity="0.3">
<path d="M-7.87109 306.922L37.9632 319.203L30.5944 346.704L-15.2398 334.422L-7.87109 306.922Z" fill="#A7FAFF"/>
<path fill-rule="evenodd" clip-rule="evenodd" d="M37.6326 320.342L37.6633 320.35L38.5843 316.913L39.3629 304.84L-1.88788 293.787L-7.2499 304.632L-7.97152 307.325C-7.99341 307.396 -8.01406 307.467 -8.03346 307.54C-8.05286 307.612 -8.07083 307.685 -8.08739 307.757L-8.171 308.069L-8.15097 308.074C-8.66586 311.062 -6.82544 314.004 -3.83934 314.804C-0.853233 315.604 2.21143 313.977 3.25954 311.132L3.3122 311.146C2.79957 314.133 4.63968 317.072 7.6245 317.872C10.6093 318.672 13.6726 317.046 14.722 314.203L14.7711 314.216C14.2573 317.204 16.0976 320.144 19.083 320.944C22.0685 321.744 25.1325 320.118 26.1812 317.274L26.2228 317.285C25.7101 320.272 27.5502 323.211 30.535 324.011C33.5199 324.811 36.5832 323.185 37.6326 320.342Z" fill="#00D0DC"/>
<path opacity="0.6" d="M5.10156 322.68L18.8518 326.364L14.5534 342.406L0.803125 338.722L5.10156 322.68Z" fill="#00D0DC"/>
</g>
<g opacity="0.3">
<ellipse cx="108.736" cy="336.526" rx="21.353" ry="18.9804" transform="rotate(15 108.736 336.526)" fill="#A7FAFF"/>
<path d="M94.0391 354.695L112.373 359.608L111.145 364.191V364.191C104.64 364.824 98.1273 363.079 92.8109 359.279V359.279L94.0391 354.695Z" fill="#02C5D0"/>
<path fill-rule="evenodd" clip-rule="evenodd" d="M131.655 342.662L85.8203 330.381L84.9831 333.505L84.7038 334.548L84.7356 334.556C84.2716 336.836 84.2579 339.2 84.6981 341.547C85.2064 344.257 86.3098 346.891 87.9454 349.299C89.581 351.707 91.7168 353.842 94.2307 355.581C96.7446 357.321 99.5875 358.632 102.597 359.438C105.607 360.244 108.724 360.531 111.771 360.281C114.818 360.032 117.735 359.251 120.355 357.983C122.976 356.715 125.248 354.986 127.043 352.893C128.598 351.081 129.768 349.027 130.506 346.82L130.538 346.829L130.817 345.786L131.655 342.662Z" fill="#00D0DC"/>
</g>
<g opacity="0.3">
<rect x="189.52" y="348.572" width="11.8628" height="37.9609" transform="rotate(15 189.52 348.572)" fill="#00D0DC"/>
<rect x="223.902" y="357.787" width="11.8628" height="37.9609" transform="rotate(15 223.902 357.787)" fill="#00D0DC"/>
<path d="M184.242 354.527L187.68 355.448L181.539 378.366L178.102 377.444L184.242 354.527Z" fill="#A7FAFF"/>
<path d="M233.512 367.73L236.949 368.652L230.809 391.569L227.371 390.648L233.512 367.73Z" fill="#A7FAFF"/>
<path d="M195.145 373.416L196.987 366.541L219.904 372.682L218.062 379.557L195.145 373.416Z" fill="#A7FAFF"/>
<path d="M175.672 368.193L177.514 361.318L182.097 362.546L180.255 369.421L175.672 368.193Z" fill="#00D0DC"/>
<path d="M232.953 383.547L234.795 376.672L239.379 377.9L237.537 384.775L232.953 383.547Z" fill="#00D0DC"/>
</g>
<g opacity="0.3">
<path d="M294.27 387.715L340.104 399.996L335.191 418.33L289.357 406.049L294.27 387.715Z" fill="#00D0DC"/>
<rect x="289.355" y="406.049" width="9.49022" height="7.11767" transform="rotate(15 289.355 406.049)" fill="#02C5D0"/>
<path d="M286.956 387.51C287.198 386.606 288.127 386.069 289.031 386.312L296.561 388.329L295.026 394.059L289.952 392.699C287.692 392.093 286.35 389.77 286.956 387.51V387.51Z" fill="#00D0DC"/>
<path d="M304.83 375.806L336.913 384.403L337.813 399.382L296.562 388.328L304.83 375.806Z" fill="#A7FAFF"/>
<circle cx="302.438" cy="398.501" r="3.55883" transform="rotate(15 302.438 398.501)" fill="#A7FAFF"/>
<rect x="306.637" y="405.764" width="14.2353" height="4.74511" transform="rotate(15 306.637 405.764)" fill="#02C5D0"/>
</g>
</g>
<g opacity="0.6">
<g opacity="0.3">
<path d="M15.7227 407.494L61.5569 419.775L54.1882 447.276L8.35391 434.995L15.7227 407.494Z" fill="#A7FAFF"/>
<path fill-rule="evenodd" clip-rule="evenodd" d="M61.2263 420.914L61.257 420.923L62.1781 417.485L62.9567 405.412L21.7059 394.359L16.3438 405.204L15.6222 407.897C15.6003 407.968 15.5797 408.04 15.5603 408.112C15.5409 408.184 15.5229 408.257 15.5064 408.329L15.4228 408.641L15.4428 408.647C14.9279 411.635 16.7683 414.576 19.7544 415.376C22.7405 416.177 25.8052 414.549 26.8533 411.704L26.9059 411.718C26.3933 414.705 28.2334 417.644 31.2182 418.444C34.2031 419.244 37.2664 417.618 38.3158 414.776L38.3648 414.789C37.8511 417.776 39.6913 420.717 42.6768 421.516C45.6623 422.316 48.7262 420.69 49.775 417.846L49.8165 417.857C49.3039 420.844 51.144 423.783 54.1288 424.583C57.1136 425.383 60.1769 423.757 61.2263 420.914Z" fill="#00D0DC"/>
<path opacity="0.6" d="M28.6953 423.254L42.4456 426.938L38.1472 442.98L24.3969 439.296L28.6953 423.254Z" fill="#00D0DC"/>
</g>
<g opacity="0.3">
<ellipse cx="132.326" cy="437.095" rx="21.353" ry="18.9804" transform="rotate(15 132.326 437.095)" fill="#A7FAFF"/>
<path d="M117.633 455.266L135.967 460.178L134.738 464.762V464.762C128.234 465.394 121.721 463.649 116.405 459.849V459.849L117.633 455.266Z" fill="#02C5D0"/>
<path fill-rule="evenodd" clip-rule="evenodd" d="M155.248 443.232L109.414 430.951L108.577 434.076L108.298 435.118L108.329 435.126C107.865 437.406 107.852 439.77 108.292 442.117C108.8 444.827 109.904 447.461 111.539 449.869C113.175 452.277 115.311 454.412 117.824 456.152C120.338 457.891 123.181 459.202 126.191 460.008C129.2 460.815 132.317 461.101 135.364 460.852C138.411 460.602 141.328 459.821 143.949 458.553C146.569 457.286 148.842 455.556 150.637 453.463C152.192 451.651 153.362 449.597 154.1 447.391L154.132 447.399L154.411 446.357L155.248 443.232Z" fill="#00D0DC"/>
</g>
<g opacity="0.3">
<rect x="213.109" y="449.145" width="11.8628" height="37.9609" transform="rotate(15 213.109 449.145)" fill="#00D0DC"/>
<rect x="247.492" y="458.359" width="11.8628" height="37.9609" transform="rotate(15 247.492 458.359)" fill="#00D0DC"/>
<path d="M207.832 455.1L211.27 456.021L205.129 478.938L201.691 478.017L207.832 455.1Z" fill="#A7FAFF"/>
<path d="M257.102 468.303L260.539 469.224L254.399 492.141L250.961 491.22L257.102 468.303Z" fill="#A7FAFF"/>
<path d="M218.734 473.988L220.577 467.113L243.494 473.254L241.651 480.129L218.734 473.988Z" fill="#A7FAFF"/>
<path d="M199.262 468.766L201.104 461.89L205.687 463.119L203.845 469.994L199.262 468.766Z" fill="#00D0DC"/>
<path d="M256.543 484.119L258.385 477.244L262.969 478.472L261.126 485.347L256.543 484.119Z" fill="#00D0DC"/>
</g>
<g opacity="0.3">
<path d="M317.859 488.285L363.694 500.566L358.781 518.9L312.947 506.619L317.859 488.285Z" fill="#00D0DC"/>
<rect x="312.945" y="506.619" width="9.49022" height="7.11767" transform="rotate(15 312.945 506.619)" fill="#02C5D0"/>
<path d="M310.546 488.08C310.788 487.176 311.717 486.64 312.621 486.882L320.151 488.9L318.616 494.629L313.542 493.269C311.281 492.664 309.94 490.34 310.546 488.08V488.08Z" fill="#00D0DC"/>
</g>
</g>
<g opacity="0.6">
<g opacity="0.3">
<path d="M-7.84375 495.434L37.9905 507.715L30.6217 535.215L-15.2125 522.934L-7.84375 495.434Z" fill="#A7FAFF"/>
<path fill-rule="evenodd" clip-rule="evenodd" d="M37.6599 508.854L37.6906 508.862L38.6117 505.424L39.3903 493.352L-1.86053 482.299L-7.22256 493.143L-7.94418 495.836C-7.96607 495.907 -7.98672 495.979 -8.00612 496.051C-8.02552 496.124 -8.04349 496.196 -8.06005 496.269L-8.14365 496.581L-8.12363 496.586C-8.63851 499.574 -6.7981 502.516 -3.81199 503.316C-0.825889 504.116 2.23877 502.489 3.28688 499.644L3.33954 499.658C2.82691 502.644 4.66702 505.584 7.65184 506.384C10.6367 507.183 13.7 505.558 14.7494 502.715L14.7984 502.728C14.2847 505.715 16.1249 508.656 19.1104 509.456C22.0958 510.256 25.1598 508.629 26.2086 505.785L26.2501 505.797C25.7375 508.783 27.5776 511.723 30.5624 512.522C33.5472 513.322 36.6105 511.697 37.6599 508.854Z" fill="#00D0DC"/>
<path opacity="0.6" d="M5.12891 511.193L18.8792 514.878L14.5807 530.92L0.830469 527.235L5.12891 511.193Z" fill="#00D0DC"/>
</g>
<g opacity="0.3">
<ellipse cx="108.76" cy="525.034" rx="21.353" ry="18.9804" transform="rotate(15 108.76 525.034)" fill="#A7FAFF"/>
<path d="M94.0664 543.205L112.4 548.118L111.172 552.701V552.701C104.668 553.334 98.1547 551.589 92.8383 547.789V547.789L94.0664 543.205Z" fill="#02C5D0"/>
<path fill-rule="evenodd" clip-rule="evenodd" d="M131.682 531.172L85.8477 518.891L85.0105 522.015L84.7312 523.057L84.763 523.066C84.299 525.346 84.2853 527.71 84.7255 530.057C85.2337 532.766 86.3372 535.401 87.9728 537.809C89.6084 540.217 91.7441 542.352 94.258 544.091C96.7719 545.831 99.6148 547.141 102.624 547.948C105.634 548.754 108.751 549.041 111.798 548.791C114.845 548.541 117.762 547.76 120.382 546.493C123.003 545.225 125.276 543.496 127.071 541.403C128.626 539.59 129.796 537.536 130.534 535.33L130.565 535.339L130.845 534.296L131.682 531.172Z" fill="#00D0DC"/>
</g>
<g opacity="0.3">
<rect x="189.543" y="537.084" width="11.8628" height="37.9609" transform="rotate(15 189.543 537.084)" fill="#00D0DC"/>
<rect x="223.926" y="546.299" width="11.8628" height="37.9609" transform="rotate(15 223.926 546.299)" fill="#00D0DC"/>
<path d="M184.266 543.039L187.703 543.96L181.563 566.877L178.125 565.956L184.266 543.039Z" fill="#A7FAFF"/>
<path d="M233.535 556.242L236.973 557.163L230.832 580.08L227.395 579.159L233.535 556.242Z" fill="#A7FAFF"/>
<path d="M195.168 561.928L197.01 555.053L219.927 561.193L218.085 568.068L195.168 561.928Z" fill="#A7FAFF"/>
<path d="M175.695 556.705L177.537 549.83L182.121 551.058L180.279 557.933L175.695 556.705Z" fill="#00D0DC"/>
<path d="M232.977 572.059L234.819 565.183L239.402 566.412L237.56 573.287L232.977 572.059Z" fill="#00D0DC"/>
</g>
<g opacity="0.3">
<path d="M304.853 564.316L336.937 572.913L337.836 587.891L296.585 576.838L304.853 564.316Z" fill="#A7FAFF"/>
</g>
</g>
</g>
</g>
<defs>
<clipPath id="clip0_6576_26926">
<rect width="320" height="568" fill="white"/>
</clipPath>
<clipPath id="clip1_6576_26926">
<rect width="320" height="568" fill="white"/>
</clipPath>
</defs>
</svg>
