<svg width="539" height="956" viewBox="0 0 539 956" fill="none" xmlns="http://www.w3.org/2000/svg">
<g clip-path="url(#clip0_6827_27059)">
<rect width="538.592" height="956" fill="white"/>
<g clip-path="url(#clip1_6827_27059)">
<rect width="538.592" height="956" transform="translate(0.00390625)" fill="#E7FCFF"/>
<g opacity="0.6">
<g opacity="0.3">
<path d="M261.711 -9.83984L292.568 -1.57162L290.501 6.14273C279.554 7.20763 268.592 4.2703 259.644 -2.12549L261.711 -9.83984Z" fill="#02C5D0"/>
<path fill-rule="evenodd" clip-rule="evenodd" d="M325.021 -30.0945L247.877 -50.7651L246.468 -45.5064L246.466 -45.5069C246.435 -45.3915 246.405 -45.276 246.375 -45.1603L245.998 -43.752L246.049 -43.7382C245.268 -39.9014 245.245 -35.9225 245.986 -31.9722C246.842 -27.4112 248.699 -22.9777 251.452 -18.9246C254.205 -14.8716 257.799 -11.2785 262.03 -8.3505C266.262 -5.42248 271.046 -3.21689 276.112 -1.85964C281.177 -0.502388 286.424 -0.0200718 291.552 -0.440221C296.68 -0.860372 301.59 -2.17476 306 -4.30835C310.411 -6.44194 314.236 -9.35293 317.258 -12.8751C319.874 -15.9257 321.844 -19.3831 323.086 -23.0964L323.141 -23.0815L325.021 -30.0945Z" fill="#00D0DC"/>
</g>
<g opacity="0.3">
<rect x="422.402" y="-20.1445" width="19.9662" height="63.8919" transform="rotate(15 422.402 -20.1445)" fill="#00D0DC"/>
<rect x="480.273" y="-4.63477" width="19.9662" height="63.8919" transform="rotate(15 480.273 -4.63477)" fill="#00D0DC"/>
<path d="M413.52 -10.123L419.305 -8.57276L408.97 29.999L403.184 28.4487L413.52 -10.123Z" fill="#A7FAFF"/>
<path d="M496.445 12.0996L502.231 13.6499L491.896 52.2217L486.11 50.6714L496.445 12.0996Z" fill="#A7FAFF"/>
<path d="M431.871 21.6699L434.972 10.0984L473.543 20.4337L470.443 32.0052L431.871 21.6699Z" fill="#A7FAFF"/>
<path d="M399.098 12.8789L402.198 1.30737L409.913 3.37443L406.812 14.946L399.098 12.8789Z" fill="#00D0DC"/>
<path d="M495.508 38.7207L498.608 27.1492L506.323 29.2162L503.222 40.7878L495.508 38.7207Z" fill="#00D0DC"/>
</g>
</g>
<g opacity="0.6">
<g opacity="0.3">
<path d="M147.426 83.7266L224.569 104.397L212.167 150.683L135.023 130.013L147.426 83.7266Z" fill="#A7FAFF"/>
<path fill-rule="evenodd" clip-rule="evenodd" d="M224.015 106.313L224.068 106.327L225.618 100.541L226.929 80.2216L157.5 61.6181L148.475 79.8705L147.279 84.3325C147.234 84.4747 147.192 84.6185 147.153 84.764C147.114 84.9095 147.079 85.055 147.047 85.2007L146.924 85.6563L146.955 85.6645C146.089 90.6935 149.187 95.6441 154.212 96.9908C159.238 98.3374 164.396 95.5988 166.16 90.8105L166.251 90.8347C165.388 95.8616 168.485 100.809 173.509 102.155C178.533 103.501 183.688 100.765 185.455 95.9804L185.541 96.0035C184.677 101.031 187.774 105.98 192.799 107.326C197.823 108.672 202.98 105.935 204.745 101.149L204.811 101.167C203.948 106.194 207.045 111.141 212.069 112.487C217.093 113.833 222.248 111.097 224.015 106.313Z" fill="#00D0DC"/>
<path opacity="0.6" d="M169.262 110.25L192.405 116.451L185.17 143.451L162.027 137.25L169.262 110.25Z" fill="#00D0DC"/>
</g>
<g opacity="0.3">
<rect x="55.7188" y="21.2188" width="31.946" height="79.8649" transform="rotate(60 55.7188 21.2188)" fill="#00D0DC"/>
<rect x="55.7188" y="21.2188" width="31.946" height="11.9797" transform="rotate(60 55.7188 21.2188)" fill="#A7FAFF"/>
<mask id="mask0_6827_27059" style="mask-type:alpha" maskUnits="userSpaceOnUse" x="-27" y="61" width="30" height="28">
<path d="M2.53938 88.8223L-13.4336 61.1562L-26.1966 86.969L2.53938 88.8223Z" fill="#00D0DC"/>
</mask>
<g mask="url(#mask0_6827_27059)">
<path d="M2.53938 88.8223L-13.4336 61.1562L-26.1966 86.969L2.53938 88.8223Z" fill="#A7FAFF"/>
</g>
</g>
<g opacity="0.3">
<ellipse cx="343.204" cy="133.419" rx="35.9392" ry="31.946" transform="rotate(15 343.204 133.419)" fill="#A7FAFF"/>
<path d="M318.473 164.002L349.33 172.27L347.263 179.985C336.316 181.049 325.354 178.112 316.406 171.716L318.473 164.002Z" fill="#02C5D0"/>
<path fill-rule="evenodd" clip-rule="evenodd" d="M381.782 143.749L304.639 123.079L303.23 128.337L303.228 128.337C303.197 128.452 303.167 128.568 303.137 128.683L302.76 130.092L302.811 130.106C302.03 133.942 302.007 137.921 302.748 141.872C303.603 146.433 305.461 150.866 308.213 154.919C310.966 158.972 314.561 162.565 318.792 165.493C323.023 168.421 327.808 170.627 332.874 171.984C337.939 173.341 343.185 173.824 348.314 173.404C353.442 172.983 358.352 171.669 362.762 169.535C367.173 167.402 370.998 164.491 374.019 160.969C376.636 157.918 378.606 154.461 379.848 150.747L379.903 150.762L381.782 143.749Z" fill="#00D0DC"/>
</g>
<g opacity="0.3">
<rect x="478.676" y="153.566" width="19.9662" height="63.8919" transform="rotate(15 478.676 153.566)" fill="#00D0DC"/>
<rect x="536.547" y="169.076" width="19.9662" height="63.8919" transform="rotate(15 536.547 169.076)" fill="#00D0DC"/>
<path d="M469.793 163.588L475.579 165.138L465.243 203.71L459.458 202.16L469.793 163.588Z" fill="#A7FAFF"/>
<path d="M488.145 195.381L491.245 183.809L529.817 194.145L526.716 205.716L488.145 195.381Z" fill="#A7FAFF"/>
<path d="M455.371 186.59L458.472 175.018L466.186 177.085L463.085 188.657L455.371 186.59Z" fill="#00D0DC"/>
</g>
</g>
<g opacity="0.6">
<g opacity="0.3">
<path d="M205.824 258.008L282.968 278.678L270.565 324.965L193.422 304.294L205.824 258.008Z" fill="#A7FAFF"/>
<path fill-rule="evenodd" clip-rule="evenodd" d="M282.413 280.596L282.466 280.61L284.017 274.824L285.327 254.505L215.898 235.901L206.873 254.154L205.678 258.616C205.633 258.758 205.591 258.902 205.552 259.047C205.513 259.193 205.477 259.338 205.445 259.484L205.323 259.939L205.354 259.948C204.488 264.977 207.585 269.927 212.611 271.274C217.637 272.621 222.794 269.882 224.559 265.094L224.649 265.118C223.786 270.145 226.884 275.092 231.907 276.438C236.931 277.784 242.087 275.048 243.853 270.264L243.94 270.287C243.075 275.314 246.173 280.263 251.197 281.609C256.222 282.956 261.378 280.219 263.144 275.433L263.209 275.45C262.347 280.477 265.444 285.424 270.467 286.77C275.491 288.116 280.647 285.38 282.413 280.596Z" fill="#00D0DC"/>
<path opacity="0.6" d="M227.66 284.533L250.803 290.734L243.569 317.735L220.425 311.533L227.66 284.533Z" fill="#00D0DC"/>
</g>
<g opacity="0.3">
<rect x="114.41" y="195.58" width="31.946" height="79.8649" transform="rotate(60 114.41 195.58)" fill="#00D0DC"/>
<rect x="114.41" y="195.58" width="31.946" height="11.9797" transform="rotate(60 114.41 195.58)" fill="#A7FAFF"/>
<mask id="mask1_6827_27059" style="mask-type:alpha" maskUnits="userSpaceOnUse" x="32" y="235" width="30" height="29">
<path d="M61.2308 263.184L45.2578 235.518L32.4948 261.33L61.2308 263.184Z" fill="#00D0DC"/>
</mask>
<g mask="url(#mask1_6827_27059)">
<path d="M61.2308 263.184L45.2578 235.518L32.4948 261.33L61.2308 263.184Z" fill="#A7FAFF"/>
<path d="M45.3977 267.707L33.418 246.957L25.5748 265.318L45.3977 267.707Z" fill="#00D0DC"/>
</g>
</g>
<g opacity="0.3">
<ellipse cx="402.087" cy="307.833" rx="35.9392" ry="31.946" transform="rotate(15 402.087 307.833)" fill="#A7FAFF"/>
<path d="M377.355 338.418L408.213 346.686L406.146 354.401C395.199 355.465 384.236 352.528 375.288 346.132L377.355 338.418Z" fill="#02C5D0"/>
<path fill-rule="evenodd" clip-rule="evenodd" d="M440.669 318.165L363.526 297.495L362.116 302.754L362.114 302.753C362.083 302.871 362.052 302.989 362.022 303.107L361.646 304.508L361.698 304.522C360.917 308.358 360.894 312.337 361.635 316.288C362.49 320.849 364.347 325.282 367.1 329.335C369.853 333.388 373.448 336.981 377.679 339.909C381.91 342.837 386.695 345.043 391.76 346.4C396.825 347.758 402.072 348.24 407.2 347.82C412.329 347.4 417.238 346.085 421.649 343.952C426.059 341.818 429.885 338.907 432.906 335.385C435.523 332.334 437.492 328.877 438.734 325.163L438.79 325.178L440.669 318.165Z" fill="#00D0DC"/>
</g>
<g opacity="0.3">
<rect x="538.055" y="328.111" width="19.9662" height="63.8919" transform="rotate(15 538.055 328.111)" fill="#00D0DC"/>
<path d="M529.172 338.133L534.958 339.683L524.622 378.255L518.837 376.705L529.172 338.133Z" fill="#A7FAFF"/>
<path d="M514.75 361.135L517.851 349.563L525.565 351.63L522.464 363.202L514.75 361.135Z" fill="#00D0DC"/>
</g>
</g>
<g opacity="0.6">
<g opacity="0.3">
<path d="M269.691 433.758L346.835 454.428L334.433 500.715L257.289 480.044L269.691 433.758Z" fill="#A7FAFF"/>
<path fill-rule="evenodd" clip-rule="evenodd" d="M346.276 456.346L346.33 456.36L347.88 450.574L349.191 430.255L279.761 411.651L270.736 429.904L269.541 434.366C269.496 434.508 269.454 434.652 269.415 434.797C269.376 434.943 269.34 435.088 269.308 435.234L269.186 435.689L269.217 435.698C268.351 440.727 271.448 445.677 276.474 447.024C281.5 448.371 286.658 445.632 288.422 440.844L288.513 440.868C287.65 445.895 290.747 450.842 295.771 452.188C300.794 453.534 305.95 450.798 307.716 446.014L307.803 446.037C306.939 451.064 310.036 456.013 315.06 457.359C320.085 458.706 325.242 455.969 327.007 451.183L327.073 451.2C326.21 456.227 329.307 461.174 334.331 462.52C339.354 463.866 344.51 461.13 346.276 456.346Z" fill="#00D0DC"/>
<path opacity="0.6" d="M291.523 460.283L314.667 466.484L307.432 493.485L284.289 487.283L291.523 460.283Z" fill="#00D0DC"/>
</g>
<g opacity="0.3">
<rect x="178.266" y="371.328" width="31.946" height="79.8649" transform="rotate(60 178.266 371.328)" fill="#00D0DC"/>
<rect x="178.266" y="371.328" width="31.946" height="11.9797" transform="rotate(60 178.266 371.328)" fill="#A7FAFF"/>
<mask id="mask2_6827_27059" style="mask-type:alpha" maskUnits="userSpaceOnUse" x="96" y="411" width="30" height="28">
<path d="M125.082 438.928L109.109 411.262L96.3464 437.074L125.082 438.928Z" fill="#00D0DC"/>
</mask>
<g mask="url(#mask2_6827_27059)">
<path d="M125.082 438.928L109.109 411.262L96.3464 437.074L125.082 438.928Z" fill="#A7FAFF"/>
<path d="M109.249 443.451L97.2695 422.701L89.4264 441.062L109.249 443.451Z" fill="#00D0DC"/>
</g>
</g>
<g opacity="0.3">
<ellipse cx="465.946" cy="483.579" rx="35.9392" ry="31.946" transform="rotate(15 465.946 483.579)" fill="#A7FAFF"/>
<path d="M441.207 514.16L472.064 522.428L469.997 530.143C459.05 531.208 448.088 528.27 439.14 521.875L441.207 514.16Z" fill="#02C5D0"/>
<path fill-rule="evenodd" clip-rule="evenodd" d="M504.528 493.909L427.385 473.239L425.976 478.498L425.974 478.497C425.943 478.612 425.913 478.728 425.883 478.844L425.506 480.252L425.557 480.266C424.776 484.103 424.753 488.081 425.494 492.032C426.35 496.593 428.207 501.026 430.96 505.079C433.712 509.132 437.307 512.725 441.538 515.653C445.769 518.581 450.554 520.787 455.62 522.144C460.685 523.502 465.932 523.984 471.06 523.564C476.188 523.144 481.098 521.829 485.508 519.696C489.919 517.562 493.744 514.651 496.765 511.129C499.382 508.078 501.352 504.621 502.594 500.908L502.649 500.922L504.528 493.909Z" fill="#00D0DC"/>
</g>
</g>
<g opacity="0.6">
<g opacity="0.3">
<path d="M-46.4883 348.756L30.6553 369.426L22.3871 400.284L-54.7565 379.613L-46.4883 348.756Z" fill="#00D0DC"/>
<rect x="6.96875" y="396.156" width="15.973" height="11.9797" transform="rotate(15 6.96875 396.156)" fill="#02C5D0"/>
<path d="M41.504 375.284C41.9117 373.763 41.0087 372.199 39.4871 371.791L26.8135 368.395L24.2297 378.038L32.7706 380.327C36.5746 381.346 40.4847 379.088 41.504 375.284Z" fill="#00D0DC"/>
<path d="M-28.7153 328.714L25.2852 343.183L26.7984 368.393L-42.6309 349.79L-28.7153 328.714Z" fill="#A7FAFF"/>
<circle cx="9.69251" cy="378.276" r="5.98987" transform="rotate(15 9.69251 378.276)" fill="#A7FAFF"/>
</g>
</g>
<g opacity="0.6">
<g opacity="0.3">
<path d="M-13.2422 516.582L63.9014 537.253L51.499 583.539L-25.6445 562.868L-13.2422 516.582Z" fill="#A7FAFF"/>
<path fill-rule="evenodd" clip-rule="evenodd" d="M63.3389 539.17L63.3923 539.184L64.9425 533.398L66.253 513.079L-3.17619 494.476L-12.201 512.728L-13.3966 517.19C-13.4415 517.332 -13.4835 517.476 -13.5225 517.621C-13.5615 517.767 -13.597 517.912 -13.6292 518.058L-13.7513 518.514L-13.7204 518.522C-14.5866 523.551 -11.4891 528.502 -6.46338 529.848C-1.43769 531.195 3.72021 528.456 5.48449 523.668L5.57505 523.692C4.71224 528.719 7.80934 533.666 12.8331 535.013C17.8568 536.359 23.0127 533.623 24.7789 528.838L24.8653 528.861C24.0013 533.889 27.0985 538.837 32.123 540.183C37.1474 541.53 42.304 538.793 44.0695 534.007L44.1351 534.024C43.2723 539.051 46.3694 543.998 51.3931 545.345C56.4168 546.691 61.5726 543.955 63.3389 539.17Z" fill="#00D0DC"/>
<path opacity="0.6" d="M8.58984 543.104L31.7329 549.305L24.4982 576.305L1.35515 570.104L8.58984 543.104Z" fill="#00D0DC"/>
</g>
<g opacity="0.3">
<ellipse cx="183.017" cy="566.409" rx="35.9392" ry="31.946" transform="rotate(15 183.017 566.409)" fill="#A7FAFF"/>
<path d="M158.281 596.99L189.139 605.258L187.072 612.973C176.124 614.038 165.162 611.1 156.214 604.705L158.281 596.99Z" fill="#02C5D0"/>
<path fill-rule="evenodd" clip-rule="evenodd" d="M221.591 576.736L144.447 556.065L143.038 561.324L143.036 561.323C143.005 561.439 142.975 561.554 142.946 561.67L142.568 563.078L142.62 563.092C141.839 566.929 141.816 570.908 142.557 574.858C143.412 579.419 145.269 583.852 148.022 587.905C150.775 591.958 154.37 595.552 158.601 598.48C162.832 601.408 167.617 603.613 172.682 604.97C177.747 606.328 182.994 606.81 188.122 606.39C193.251 605.97 198.16 604.655 202.571 602.522C206.981 600.388 210.807 597.477 213.828 593.955C216.445 590.904 218.414 587.447 219.656 583.734L219.712 583.749L221.591 576.736Z" fill="#00D0DC"/>
</g>
<g opacity="0.3">
<rect x="318.984" y="586.684" width="19.9662" height="63.8919" transform="rotate(15 318.984 586.684)" fill="#00D0DC"/>
<rect x="376.855" y="602.193" width="19.9662" height="63.8919" transform="rotate(15 376.855 602.193)" fill="#00D0DC"/>
<path d="M310.102 596.705L315.887 598.255L305.552 636.827L299.766 635.277L310.102 596.705Z" fill="#A7FAFF"/>
<path d="M393.027 618.928L398.813 620.478L388.478 659.05L382.692 657.5L393.027 618.928Z" fill="#A7FAFF"/>
<path d="M328.453 628.498L331.554 616.927L370.125 627.262L367.025 638.833L328.453 628.498Z" fill="#A7FAFF"/>
<path d="M295.68 619.707L298.78 608.135L306.495 610.203L303.394 621.774L295.68 619.707Z" fill="#00D0DC"/>
<path d="M392.09 645.549L395.19 633.977L402.905 636.044L399.804 647.616L392.09 645.549Z" fill="#00D0DC"/>
</g>
<g opacity="0.3">
<path d="M495.289 652.562L572.433 673.233L564.164 704.09L487.021 683.42L495.289 652.562Z" fill="#00D0DC"/>
<rect x="487.016" y="683.42" width="15.973" height="11.9797" transform="rotate(15 487.016 683.42)" fill="#02C5D0"/>
<path d="M482.977 652.218C483.384 650.696 484.948 649.793 486.47 650.201L499.144 653.597L496.56 663.24L488.019 660.951C484.215 659.932 481.957 656.022 482.977 652.218Z" fill="#00D0DC"/>
<path d="M513.062 632.52L567.063 646.99L568.576 672.2L499.146 653.596L513.062 632.52Z" fill="#A7FAFF"/>
<circle cx="509.036" cy="670.717" r="5.98987" transform="rotate(15 509.036 670.717)" fill="#A7FAFF"/>
<rect x="516.102" y="682.941" width="23.9595" height="7.98649" transform="rotate(15 516.102 682.941)" fill="#02C5D0"/>
</g>
</g>
<g opacity="0.6">
<g opacity="0.3">
<path d="M26.4688 685.852L103.612 706.522L91.21 752.808L14.0664 732.138L26.4688 685.852Z" fill="#A7FAFF"/>
<path fill-rule="evenodd" clip-rule="evenodd" d="M103.05 708.439L103.103 708.454L104.653 702.668L105.964 682.349L36.5347 663.745L27.5099 681.997L26.3143 686.459C26.2694 686.602 26.2274 686.745 26.1884 686.891C26.1495 687.036 26.1139 687.182 26.0817 687.328L25.9596 687.783L25.9905 687.791C25.1243 692.82 28.2219 697.771 33.2476 699.118C38.2732 700.464 43.4311 697.726 45.1954 692.937L45.286 692.962C44.4232 697.989 47.5203 702.936 52.544 704.282C57.5678 705.628 62.7236 702.892 64.4898 698.107L64.5762 698.131C63.7122 703.158 66.8095 708.107 71.8339 709.453C76.8583 710.799 82.0149 708.062 83.7805 703.276L83.846 703.294C82.9833 708.321 86.0804 713.268 91.1041 714.614C96.1278 715.96 101.284 713.224 103.05 708.439Z" fill="#00D0DC"/>
<path opacity="0.6" d="M48.3008 712.377L71.4439 718.578L64.2092 745.578L41.0661 739.377L48.3008 712.377Z" fill="#00D0DC"/>
</g>
<g opacity="0.3">
<ellipse cx="222.72" cy="735.673" rx="35.9392" ry="31.946" transform="rotate(15 222.72 735.673)" fill="#A7FAFF"/>
<path d="M197.992 766.254L228.85 774.522L226.783 782.236C215.835 783.301 204.873 780.364 195.925 773.968L197.992 766.254Z" fill="#02C5D0"/>
<path fill-rule="evenodd" clip-rule="evenodd" d="M261.302 746.001L184.158 725.331L182.749 730.589L182.747 730.589C182.716 730.704 182.686 730.82 182.657 730.935L182.279 732.344L182.331 732.357C181.55 736.194 181.527 740.173 182.267 744.123C183.123 748.684 184.98 753.118 187.733 757.171C190.486 761.224 194.081 764.817 198.312 767.745C202.543 770.673 207.328 772.879 212.393 774.236C217.458 775.593 222.705 776.076 227.833 775.655C232.962 775.235 237.871 773.921 242.282 771.787C246.692 769.654 250.517 766.743 253.539 763.221C256.156 760.17 258.125 756.713 259.367 752.999L259.423 753.014L261.302 746.001Z" fill="#00D0DC"/>
</g>
<g opacity="0.3">
<rect x="358.688" y="755.955" width="19.9662" height="63.8919" transform="rotate(15 358.688 755.955)" fill="#00D0DC"/>
<rect x="416.559" y="771.465" width="19.9662" height="63.8919" transform="rotate(15 416.559 771.465)" fill="#00D0DC"/>
<path d="M349.805 765.977L355.59 767.527L345.255 806.099L339.469 804.548L349.805 765.977Z" fill="#A7FAFF"/>
<path d="M432.73 788.199L438.516 789.75L428.181 828.321L422.395 826.771L432.73 788.199Z" fill="#A7FAFF"/>
<path d="M368.156 797.77L371.257 786.198L409.829 796.533L406.728 808.105L368.156 797.77Z" fill="#A7FAFF"/>
<path d="M335.383 788.979L338.483 777.407L346.198 779.474L343.097 791.046L335.383 788.979Z" fill="#00D0DC"/>
<path d="M431.793 814.82L434.894 803.249L442.608 805.316L439.507 816.887L431.793 814.82Z" fill="#00D0DC"/>
</g>
<g opacity="0.3">
<path d="M534.996 821.832L612.14 842.503L603.871 873.36L526.728 852.689L534.996 821.832Z" fill="#00D0DC"/>
<rect x="526.723" y="852.689" width="15.973" height="11.9797" transform="rotate(15 526.723 852.689)" fill="#02C5D0"/>
<path d="M522.684 821.488C523.091 819.966 524.655 819.063 526.177 819.471L538.851 822.867L536.267 832.509L527.726 830.221C523.922 829.202 521.664 825.292 522.684 821.488Z" fill="#00D0DC"/>
</g>
</g>
<g opacity="0.6">
<g opacity="0.3">
<path d="M-13.1953 833.865L63.9482 854.536L51.5459 900.822L-25.5976 880.151L-13.1953 833.865Z" fill="#A7FAFF"/>
<path fill-rule="evenodd" clip-rule="evenodd" d="M63.3897 856.455L63.443 856.469L64.9933 850.684L66.3038 830.364L-3.12541 811.761L-12.1502 830.013L-13.3458 834.475C-13.3907 834.617 -13.4327 834.761 -13.4717 834.907C-13.5107 835.052 -13.5463 835.198 -13.5784 835.343L-13.7005 835.799L-13.6696 835.807C-14.5358 840.836 -11.4383 845.787 -6.4126 847.133C-1.38691 848.48 3.77099 845.741 5.53528 840.953L5.62583 840.977C4.76302 846.004 7.86012 850.952 12.8839 852.298C17.9076 853.644 23.0634 850.908 24.8297 846.123L24.9161 846.146C24.052 851.174 27.1493 856.122 32.1737 857.469C37.1982 858.815 42.3548 856.078 44.1203 851.292L44.1859 851.309C43.3231 856.336 46.4202 861.284 51.4439 862.63C56.4676 863.976 61.6234 861.24 63.3897 856.455Z" fill="#00D0DC"/>
<path opacity="0.6" d="M8.63672 860.391L31.7798 866.592L24.5451 893.592L1.40202 887.391L8.63672 860.391Z" fill="#00D0DC"/>
</g>
<g opacity="0.3">
<ellipse cx="183.06" cy="883.685" rx="35.9392" ry="31.946" transform="rotate(15 183.06 883.685)" fill="#A7FAFF"/>
<path d="M158.332 914.268L189.189 922.536L187.122 930.25C176.175 931.315 165.213 928.378 156.265 921.982L158.332 914.268Z" fill="#02C5D0"/>
<path fill-rule="evenodd" clip-rule="evenodd" d="M221.642 894.015L144.498 873.344L143.089 878.603L143.087 878.602C143.056 878.718 143.026 878.833 142.996 878.949L142.619 880.357L142.67 880.371C141.889 884.208 141.866 888.187 142.607 892.137C143.463 896.698 145.32 901.132 148.073 905.185C150.826 909.238 154.42 912.831 158.652 915.759C162.883 918.687 167.668 920.892 172.733 922.25C177.798 923.607 183.045 924.089 188.173 923.669C193.301 923.249 198.211 921.935 202.622 919.801C207.032 917.667 210.857 914.756 213.879 911.234C216.495 908.184 218.465 904.726 219.707 901.013L219.763 901.028L221.642 894.015Z" fill="#00D0DC"/>
</g>
<g opacity="0.3">
<rect x="319.023" y="903.965" width="19.9662" height="63.8919" transform="rotate(15 319.023 903.965)" fill="#00D0DC"/>
<rect x="376.895" y="919.475" width="19.9662" height="63.8919" transform="rotate(15 376.895 919.475)" fill="#00D0DC"/>
<path d="M310.141 913.986L315.926 915.537L305.591 954.108L299.805 952.558L310.141 913.986Z" fill="#A7FAFF"/>
<path d="M393.066 936.209L398.852 937.759L388.517 976.331L382.731 974.781L393.066 936.209Z" fill="#A7FAFF"/>
<path d="M328.492 945.779L331.593 934.208L370.165 944.543L367.064 956.115L328.492 945.779Z" fill="#A7FAFF"/>
<path d="M295.719 936.988L298.819 925.417L306.534 927.484L303.433 939.055L295.719 936.988Z" fill="#00D0DC"/>
<path d="M392.129 962.83L395.229 951.259L402.944 953.326L399.843 964.897L392.129 962.83Z" fill="#00D0DC"/>
</g>
<g opacity="0.3">
<path d="M513.105 949.799L567.105 964.269L568.619 989.479L499.189 970.875L513.105 949.799Z" fill="#A7FAFF"/>
</g>
</g>
</g>
</g>
<defs>
<clipPath id="clip0_6827_27059">
<rect width="538.592" height="956" fill="white"/>
</clipPath>
<clipPath id="clip1_6827_27059">
<rect width="538.592" height="956" fill="white" transform="translate(0.00390625)"/>
</clipPath>
</defs>
</svg>
