<svg width="40" height="40" viewBox="0 0 40 40" fill="none" xmlns="http://www.w3.org/2000/svg">
<g id="Frame 586">
<g id="White-Logo-Square-">
<path id="Rectangle" d="M5 19.9992C5 28.283 11.7162 34.9984 20 34.9984C28.2838 34.9984 35 28.283 35 19.9992C35 11.7154 28.2838 5 20 5C11.7162 5 5 11.7154 5 19.9992Z" fill="black"/>
<path id="&#239;&#163;&#191;" d="M20.1483 15.8795C20.7156 15.8795 21.4267 15.4842 21.8501 14.9572C22.2337 14.4795 22.5133 13.8125 22.5133 13.1454C22.5133 13.0548 22.5053 12.9643 22.4893 12.8901C21.8581 12.9148 21.0991 13.3266 20.6436 13.8784C20.2841 14.2983 19.9565 14.9572 19.9565 15.6324C19.9565 15.7313 19.9725 15.8301 19.9805 15.863C20.0204 15.8713 20.0843 15.8795 20.1483 15.8795ZM18.1507 25.844C18.9258 25.844 19.2694 25.3087 20.2362 25.3087C21.2189 25.3087 21.4347 25.8275 22.2976 25.8275C23.1445 25.8275 23.7118 25.0205 24.2472 24.2299C24.8464 23.324 25.0941 22.4346 25.1101 22.3935C25.0542 22.377 23.4322 21.6935 23.4322 19.7747C23.4322 18.1112 24.7106 17.3618 24.7825 17.3042C23.9355 16.0524 22.6491 16.0195 22.2976 16.0195C21.3468 16.0195 20.5717 16.6124 20.0843 16.6124C19.557 16.6124 18.8619 16.0524 18.0389 16.0524C16.4728 16.0524 14.8828 17.3865 14.8828 19.9065C14.8828 21.4711 15.4741 23.1264 16.2012 24.197C16.8244 25.1028 17.3677 25.844 18.1507 25.844Z" fill="white"/>
</g>
</g>
</svg>
