<svg width="100" height="18" viewBox="0 0 100 18" fill="none" xmlns="http://www.w3.org/2000/svg">
<path d="M84.1478 3.51448H86.952V12.9091H84.132L83.8785 12.1486C83.4349 12.513 82.928 12.7823 82.3893 12.9725C81.819 13.1467 81.2487 13.2259 80.6625 13.2259C79.9179 13.2101 79.2367 13.0834 78.6346 12.8299C78.0168 12.5764 77.494 12.2279 77.0504 11.7843C76.6068 11.3407 76.2583 10.8179 76.0206 10.2159C75.7672 9.61385 75.6562 8.9643 75.6562 8.23555C75.6562 7.50679 75.783 6.82557 76.0523 6.19187C76.3058 5.58985 76.6543 5.05121 77.1138 4.60762C77.5574 4.16403 78.0802 3.81549 78.698 3.56201C79.3 3.32437 79.9496 3.19763 80.6466 3.19763C81.2487 3.19763 81.8348 3.27684 82.3735 3.43527C82.9121 3.59369 83.4032 3.84717 83.8627 4.17987L84.1478 3.51448ZM81.1536 10.501C81.819 10.501 82.3418 10.2951 82.7537 9.86733C83.1498 9.45542 83.3557 8.90093 83.3557 8.23555C83.3557 7.53848 83.1498 6.98399 82.7537 6.55624C82.3418 6.14434 81.819 5.93839 81.1536 5.93839C80.4882 5.93839 79.9496 6.14434 79.5535 6.55624C79.1416 6.98399 78.9515 7.53848 78.9515 8.23555C78.9515 8.90093 79.1416 9.45542 79.5535 9.86733C79.9496 10.2951 80.4882 10.501 81.1536 10.501Z" fill="#00D5E1"/>
<path d="M69.5498 3.51428L70.833 8.42546L72.2113 3.51428H75.158L72.3539 12.9089H69.5339L67.9813 7.04716L66.4288 12.9089H63.6088L60.8047 3.51428H63.7514L65.1139 8.42546L66.4129 3.51428H69.5498Z" fill="#00D5E1"/>
<path d="M59.1555 12.5212C59.1555 13.2183 59.0287 13.8678 58.7911 14.454C58.5376 15.0243 58.2049 15.5313 57.793 15.9432C57.3494 16.3551 56.8425 16.6719 56.2563 16.9254C55.6543 17.1472 55.0206 17.2898 54.3235 17.3215C53.7057 17.3373 53.1036 17.2898 52.5016 17.1631C51.8996 17.0205 51.3451 16.7987 50.8698 16.4818C50.3787 16.165 49.9827 15.7531 49.6658 15.2461C49.3331 14.7391 49.143 14.2901 49.0955 13.5614H52.3907C52.4224 13.9575 52.6201 14.1606 52.9369 14.3824C53.2379 14.5725 53.5631 14.6124 53.9433 14.6124C54.1968 14.6124 54.4503 14.5649 54.6879 14.4857C54.9097 14.3906 55.1156 14.2797 55.3058 14.1213C55.4642 13.947 55.6068 13.7411 55.7177 13.5193C55.8127 13.2816 55.8602 13.0123 55.8602 12.7113V11.9667C55.5275 12.2519 55.1473 12.4895 54.7196 12.6479C54.276 12.8064 53.8324 12.8856 53.3888 12.8856C52.7551 12.8856 52.1689 12.7905 51.6303 12.6163C51.0916 12.4261 50.6164 12.1568 50.2362 11.8241C49.8242 11.4756 49.5232 11.0795 49.3014 10.6201C49.0796 10.1607 48.9688 9.6537 48.9688 9.08337V3.49097H52.264V8.06945C52.264 8.46551 52.3115 8.79821 52.4066 9.05169C52.5016 9.33685 52.6284 9.54281 52.7868 9.70123C52.9452 9.8755 53.1195 9.98639 53.3413 10.0498C53.5314 10.129 53.7373 10.1607 53.9591 10.1607C54.4344 10.1607 54.8463 10.0181 55.1949 9.71707C55.5275 9.43191 55.7493 9.05169 55.8602 8.57641V3.49097H59.1555V12.5212Z" fill="#00D5E1"/>
<path d="M98.9992 12.5212C98.9992 13.2183 98.8725 13.8678 98.6349 14.454C98.3814 15.0243 98.0487 15.5313 97.6368 15.9432C97.1932 16.3551 96.6862 16.6719 96.1001 16.9254C95.498 17.1472 94.8643 17.2898 94.1673 17.3215C93.5494 17.3373 92.9474 17.2898 92.3454 17.1631C91.7434 17.0205 91.1889 16.7987 90.7136 16.4818C90.2225 16.165 89.8264 15.7531 89.5096 15.2461C89.1769 14.7391 88.9868 14.2901 88.9392 13.5614H92.2345C92.2662 13.9575 92.4638 14.1606 92.7807 14.3824C93.0817 14.5725 93.4068 14.6124 93.787 14.6124C94.0405 14.6124 94.294 14.5649 94.5316 14.4857C94.7534 14.3906 94.9594 14.2797 95.1495 14.1213C95.3079 13.947 95.4505 13.7411 95.5614 13.5193C95.6565 13.2816 95.704 13.0123 95.704 12.7113V11.9667C95.3713 12.2519 94.9911 12.4895 94.5633 12.6479C94.1197 12.8064 93.6761 12.8856 93.2326 12.8856C92.5989 12.8856 92.0127 12.7905 91.474 12.6163C90.9354 12.4261 90.4601 12.1568 90.0799 11.8241C89.668 11.4756 89.367 11.0795 89.1452 10.6201C88.9234 10.1607 88.8125 9.6537 88.8125 9.08337V3.49097H92.1077V8.06945C92.1077 8.46551 92.1553 8.79821 92.2503 9.05169C92.3454 9.33685 92.4721 9.54281 92.6305 9.70123C92.789 9.8755 92.9632 9.98639 93.185 10.0498C93.3751 10.129 93.5811 10.1607 93.8029 10.1607C94.2782 10.1607 94.6901 10.0181 95.0386 9.71707C95.3713 9.43191 95.5931 9.05169 95.704 8.57641V3.49097H98.9992V12.5212Z" fill="#00D5E1"/>
<path d="M39.8547 4.17987C40.0448 4.03728 40.2508 3.8947 40.4726 3.76796C40.6944 3.65706 40.9161 3.56201 41.1696 3.46695C41.3914 3.38774 41.6291 3.32437 41.8825 3.261C42.1043 3.22932 42.3261 3.19763 42.5479 3.19763C43.1816 3.19763 43.7678 3.29269 44.3064 3.46695C44.8451 3.65706 45.3045 3.92639 45.7164 4.25908C46.0966 4.60762 46.4135 5.00368 46.6353 5.46311C46.8571 5.93839 46.968 6.44535 46.968 6.99983V12.9091H43.6727V8.01375C43.6727 7.63353 43.6252 7.30084 43.5302 7.01568C43.4351 6.7622 43.3084 6.5404 43.1499 6.36613C42.9915 6.20771 42.8014 6.09681 42.6113 6.0176C42.3895 5.95423 42.1835 5.92254 41.9776 5.92254C41.5023 5.92254 41.0904 6.06513 40.7577 6.35029C40.4092 6.6513 40.1715 7.03152 40.0765 7.50679V12.9091H36.7812V3.51448H39.6012L39.8547 4.17987Z" fill="#00D5E1"/>
<path d="M27.7844 4.17987C27.9745 4.03728 28.1804 3.8947 28.4022 3.76796C28.624 3.65706 28.8458 3.56201 29.0993 3.46695C29.3211 3.38774 29.5587 3.32437 29.8122 3.261C30.034 3.22932 30.2558 3.19763 30.4776 3.19763C31.1113 3.19763 31.6975 3.29269 32.2361 3.46695C32.7748 3.65706 33.2342 3.92639 33.6461 4.25908C34.0263 4.60762 34.3432 5.00368 34.565 5.46311C34.7868 5.93839 34.8977 6.44535 34.8977 6.99983V12.9091H31.6024V8.01375C31.6024 7.63353 31.5549 7.30084 31.4598 7.01568C31.3648 6.7622 31.2381 6.5404 31.0796 6.36613C30.9212 6.20771 30.7311 6.09681 30.541 6.0176C30.3192 5.95423 30.1132 5.92254 29.9073 5.92254C29.432 5.92254 29.0201 6.06513 28.6874 6.35029C28.3389 6.6513 28.1012 7.03152 28.0062 7.50679V12.9091H24.7109V3.51448H27.5309L27.7844 4.17987Z" fill="#00D5E1"/>
<path d="M3.22463 13.3399H0V0H6.53457C7.29665 0 7.97911 0.102229 8.58195 0.306687C9.19617 0.500384 9.7137 0.79093 10.1346 1.17832C10.5668 1.56572 10.8966 2.0392 11.1241 2.59877C11.363 3.14758 11.4824 3.77709 11.4824 4.48732C11.4824 5.19754 11.363 5.83244 11.1241 6.392C10.8966 6.94081 10.5668 7.40891 10.1346 7.79631C9.7137 8.1837 9.19617 8.47963 8.58195 8.68409C7.97911 8.87778 7.29665 8.97463 6.53457 8.97463H3.22463V13.3399ZM3.22463 2.67948V6.29516H6.19334C6.79618 6.29516 7.2739 6.1445 7.62651 5.8432C7.99049 5.54189 8.17248 5.08993 8.17248 4.48732C8.17248 3.8847 7.99049 3.43274 7.62651 3.13144C7.2739 2.83013 6.79618 2.67948 6.19334 2.67948H3.22463Z" fill="#00D5E1"/>
<path d="M17.7286 13.5086C16.6568 13.5086 15.6945 13.2776 14.8419 12.8156C14.0015 12.3651 13.3438 11.7356 12.8688 10.927C12.3938 10.1185 12.1562 9.206 12.1562 8.18954C12.1562 7.17309 12.3938 6.26059 12.8688 5.45205C13.3438 4.6435 14.0015 4.014 14.8419 3.56352C15.6945 3.1015 16.6568 2.87048 17.7286 2.87048C18.8004 2.87048 19.7566 3.1015 20.597 3.56352C21.4496 4.014 22.1134 4.6435 22.5884 5.45205C23.0634 6.26059 23.3009 7.17309 23.3009 8.18954C23.3009 8.52451 23.2766 8.8537 23.2279 9.17712H15.39C15.5118 9.7662 15.7798 10.2225 16.1939 10.5459C16.608 10.8693 17.1196 11.031 17.7286 11.031C18.1914 11.031 18.5995 10.9617 18.9527 10.8231C19.3181 10.6729 19.5678 10.4766 19.7018 10.234H22.9721C22.7894 10.8808 22.4483 11.4468 21.949 11.9319C21.4496 12.4286 20.8345 12.8156 20.1037 13.0928C19.3729 13.37 18.5812 13.5086 17.7286 13.5086ZM20.122 7.18464C19.988 6.57246 19.7139 6.11043 19.2998 5.79857C18.8857 5.47515 18.362 5.31344 17.7286 5.31344C17.0952 5.31344 16.5776 5.47515 16.1756 5.79857C15.7737 6.11043 15.5057 6.57246 15.3718 7.18464H20.122Z" fill="#00D5E1"/>
</svg>
