<svg width="40" height="40" viewBox="0 0 40 40" fill="none" xmlns="http://www.w3.org/2000/svg">
<g clip-path="url(#clip0_5871_25929)">
<path d="M0 20C0 31.0457 8.95539 40 20.0011 40C31.0468 40 40.0022 31.0457 40.0022 20C40.0022 8.95431 31.0468 0 20.0011 0C8.95539 0 0 8.95431 0 20Z" fill="#F7F8F9"/>
<path d="M20.2007 14.5074C20.9571 14.5074 21.9053 13.9803 22.47 13.2775C22.9814 12.6406 23.3542 11.7512 23.3542 10.8618C23.3542 10.741 23.3436 10.6202 23.3223 10.5214C22.4806 10.5543 21.4685 11.1033 20.8612 11.8391C20.3818 12.3991 19.945 13.2775 19.945 14.178C19.945 14.3097 19.9663 14.4415 19.9769 14.4854C20.0302 14.4964 20.1154 14.5074 20.2007 14.5074ZM17.5372 27.7941C18.5706 27.7941 19.0287 27.0803 20.3179 27.0803C21.6283 27.0803 21.916 27.7721 23.0666 27.7721C24.1959 27.7721 24.9523 26.696 25.6662 25.6419C26.4652 24.434 26.7955 23.2481 26.8168 23.1932C26.7422 23.1712 24.5795 22.2598 24.5795 19.7013C24.5795 17.4832 26.2841 16.4839 26.38 16.407C25.2507 14.738 23.5354 14.694 23.0666 14.694C21.7988 14.694 20.7653 15.4847 20.1154 15.4847C19.4123 15.4847 18.4854 14.738 17.388 14.738C15.2998 14.738 13.1797 16.5169 13.1797 19.877C13.1797 21.9633 13.9681 24.1704 14.9376 25.5979C15.7686 26.8058 16.4931 27.7941 17.5372 27.7941Z" fill="#B3B9C4"/>
</g>
<defs>
<clipPath id="clip0_5871_25929">
<rect width="40" height="40" fill="white"/>
</clipPath>
</defs>
</svg>
