<svg width="160" height="160" viewBox="0 0 160 160" fill="none" xmlns="http://www.w3.org/2000/svg">
<path d="M45 73.0465H115V107.435C115 110.019 112.841 112.116 110.182 112.116H49.8181C47.1588 112.116 45 110.019 45 107.435V73.0465Z" fill="#00B1BB"/>
<path d="M71.4732 50.2221L45 73.0465H115L88.5194 50.2221C83.537 45.926 76.4556 45.926 71.4732 50.2221Z" fill="#9DEFF6"/>
<path d="M98.108 68.1628H61.8953C59.3082 68.1628 57.2109 70.5294 57.2109 73.4488V97.0628C57.2109 99.9822 59.3082 102.349 61.8953 102.349H98.108C100.695 102.349 102.792 99.9822 102.792 97.0628V73.4488C102.792 70.5294 100.695 68.1628 98.108 68.1628Z" fill="white"/>
<path d="M97.1132 89.2391H62.8868L45 73.0465V107.435C45 110.019 47.1602 112.116 49.8211 112.116H110.179C112.84 112.116 115 110.019 115 107.435V73.0465L97.1132 89.2391Z" fill="#01D1DD"/>
<path d="M95.0402 75.8143H64.6797V77.7678H95.0402V75.8143Z" fill="#F0F2F4"/>
<path d="M95.0402 81.5358H64.6797V83.4893H95.0402V81.5358Z" fill="#F0F2F4"/>
</svg>
