<svg width="40" height="40" viewBox="0 0 40 40" fill="none" xmlns="http://www.w3.org/2000/svg">
<rect x="1" y="1" width="37.4555" height="37.4555" rx="18.7277" fill="#F7F8F9"/>
<path d="M27.8709 22.9854V13.2144C27.8709 12.3188 27.1381 11.5859 26.2424 11.5859H16.4714C15.5758 11.5859 14.8429 12.3188 14.8429 13.2144V22.9854C14.8429 23.8811 15.5758 24.6139 16.4714 24.6139H26.2424C27.1381 24.6139 27.8709 23.8811 27.8709 22.9854ZM19.2399 20.16L20.5671 21.935L22.6679 19.3132C22.8307 19.1096 23.1401 19.1096 23.303 19.3132L25.7132 22.3259C25.9249 22.5946 25.7376 22.9854 25.3956 22.9854H17.2857C16.9518 22.9854 16.7564 22.6027 16.96 22.334L18.5885 20.16C18.7513 19.9483 19.077 19.9483 19.2399 20.16V20.16ZM11.5859 15.6572V26.2424C11.5859 27.1381 12.3188 27.8709 13.2144 27.8709H23.7997C24.2475 27.8709 24.6139 27.5045 24.6139 27.0567C24.6139 26.6088 24.2475 26.2424 23.7997 26.2424H14.0287C13.5808 26.2424 13.2144 25.876 13.2144 25.4282V15.6572C13.2144 15.2093 12.848 14.8429 12.4002 14.8429C11.9523 14.8429 11.5859 15.2093 11.5859 15.6572Z" fill="#00D5E1"/>
</svg>
