<svg width="16" height="14" viewBox="0 0 16 14" fill="none" xmlns="http://www.w3.org/2000/svg">
<path d="M7.56757 13.4535L6.84444 12.7303C5.85225 11.7381 5.86066 10.1237 6.86126 9.14835L7.56757 8.45886C7.23964 8.42523 6.9958 8.40841 6.72673 8.40841C4.48168 8.40841 0 9.53513 0 11.7718V13.4535H7.56757ZM6.72673 6.72673C8.58498 6.72673 10.0901 5.22162 10.0901 3.36336C10.0901 1.50511 8.58498 0 6.72673 0C4.86847 0 3.36336 1.50511 3.36336 3.36336C3.36336 5.22162 4.86847 6.72673 6.72673 6.72673Z" fill="#00D5E1"/>
<path d="M11.0843 13.2689C10.7564 13.5968 10.2183 13.5968 9.89034 13.2689L8.1498 11.5116C7.83028 11.1836 7.83028 10.6623 8.1498 10.3428L8.1582 10.3344C8.48613 10.0065 9.01586 10.0065 9.33538 10.3344L10.4873 11.4863L14.2123 7.73618C14.5402 7.40825 15.0699 7.40825 15.3978 7.73618L15.4063 7.74459C15.7258 8.07252 15.7258 8.59384 15.4063 8.91336L11.0843 13.2689Z" fill="#00D5E1"/>
</svg>
