<svg width="17" height="17" viewBox="0 0 17 17" fill="none" xmlns="http://www.w3.org/2000/svg">
<path id="Icon" d="M11.7556 15.6667H4.20334C3.70971 15.6667 3.4629 15.6667 3.34861 15.5691C3.24944 15.4844 3.19681 15.3573 3.20705 15.2273C3.21884 15.0775 3.39336 14.9029 3.74241 14.5539L10.6707 7.62556C10.9934 7.30288 11.1548 7.14154 11.3408 7.08109C11.5045 7.02792 11.6807 7.02792 11.8444 7.08109C12.0304 7.14154 12.1918 7.30288 12.5144 7.62556L14.9753 10.0864C15.418 10.5291 15.6667 11.1295 15.6667 11.7556V11.7556M11.7556 15.6667C13.1246 15.6667 13.8091 15.6667 14.332 15.4002C14.7919 15.1659 15.1659 14.7919 15.4002 14.332C15.6667 13.8091 15.6667 13.1246 15.6667 11.7556M11.7556 15.6667H4.91111C3.54209 15.6667 2.85759 15.6667 2.33469 15.4002C1.87474 15.1659 1.50079 14.7919 1.26643 14.332C1 13.8091 1 13.1246 1 11.7556V4.91111C1 3.54209 1 2.85759 1.26643 2.33469C1.50079 1.87474 1.87474 1.50079 2.33469 1.26643C2.85759 1 3.54209 1 4.91111 1H11.7556C13.1246 1 13.8091 1 14.332 1.26643C14.7919 1.50079 15.1659 1.87474 15.4002 2.33469C15.6667 2.85759 15.6667 3.54209 15.6667 4.91111V11.7556M7.11111 5.48148C7.11111 6.3815 6.3815 7.11111 5.48148 7.11111C4.58146 7.11111 3.85185 6.3815 3.85185 5.48148C3.85185 4.58146 4.58146 3.85185 5.48148 3.85185C6.3815 3.85185 7.11111 4.58146 7.11111 5.48148Z" stroke="white" stroke-width="1.62963" stroke-linecap="round" stroke-linejoin="round"/>
</svg>
