<svg width="160" height="160" viewBox="0 0 160 160" fill="none" xmlns="http://www.w3.org/2000/svg">
<path d="M129.478 83.389L126.959 83.3525L126.594 85.7621L129.478 83.389Z" fill="#38B5C2"/>
<path d="M47.5246 126.743L56.8825 64.9287L124.104 65.0259C127.375 65.0259 129.609 67.5839 129.123 70.7572L121.481 121.109C120.996 124.282 117.984 126.84 114.714 126.808L47.4922 126.711L47.5246 126.743Z" fill="#00D0DC"/>
<path d="M43.1496 130.272L52.5075 68.4575L119.729 68.5547C123 68.5547 125.234 71.1127 124.748 74.286L117.106 124.638C116.621 127.811 113.609 130.369 110.339 130.337L43.1172 130.239L43.1496 130.272Z" fill="#D5F0F4"/>
<path d="M47 73.1203L56.9084 64.9604L55.6456 73.1203H47Z" fill="#38B5C2"/>
<path d="M50.7344 73.1203L56.3686 68.4575L55.6562 73.1203H50.7344Z" fill="#D5F0F4"/>
<path d="M119.571 91.5461L115.75 116.738L125.658 108.546L128.249 91.5461L129.479 83.3862L119.571 91.5461Z" fill="#8DF9FF"/>
<path d="M38.4892 129.204L46.9729 73.1206L114.195 73.2177C117.465 73.2177 119.699 75.7758 119.214 78.9491L111.572 129.301C111.086 132.474 108.075 135.032 104.804 135L43.5082 134.902C40.2377 134.902 38.0035 132.312 38.4568 129.171L38.4892 129.204Z" fill="url(#paint0_linear_758_24038)"/>
<path d="M90.1065 91.5132H119.573L115.752 116.738H86.9979C79.9714 116.673 74.4667 111.557 75.1143 104.757C75.8267 97.5036 82.6913 91.5132 90.0741 91.5132H90.1065Z" fill="url(#paint1_linear_758_24038)"/>
<path d="M91.5534 107.129C93.6778 105.521 94.2798 102.737 92.8981 100.912C91.5164 99.0875 88.6741 98.9119 86.5497 100.52C84.4253 102.129 83.8232 104.912 85.205 106.737C86.5867 108.562 89.429 108.738 91.5534 107.129Z" fill="#00D0DC"/>
<path d="M69.9506 41.2621C69.9506 32.8357 61.2233 26 50.4753 26C39.7273 26 31 32.8357 31 41.2621C31 49.6885 39.7273 56.5242 50.4753 56.5242C53.0978 56.5242 55.5483 56.0943 57.8269 55.3634L62.685 58.9747V53.0849C67.1131 50.2904 69.9936 46.0772 69.9936 41.2621H69.9506Z" fill="#01D1DD"/>
<path d="M72.9691 50.4681C72.9691 45.6429 77.9666 41.7285 84.1213 41.7285C90.2759 41.7285 95.2734 45.6429 95.2734 50.4681C95.2734 55.2933 90.2759 59.2077 84.1213 59.2077C82.6195 59.2077 81.2163 58.9615 79.9115 58.543L77.1296 60.6109V57.2382C74.5939 55.638 72.9444 53.2254 72.9444 50.4681H72.9691Z" fill="#F0F2F4"/>
<path d="M42.5089 43.4548C43.6011 43.4548 44.4865 42.5693 44.4865 41.4771C44.4865 40.3849 43.6011 39.4995 42.5089 39.4995C41.4167 39.4995 40.5312 40.3849 40.5312 41.4771C40.5312 42.5693 41.4167 43.4548 42.5089 43.4548Z" fill="white"/>
<path d="M50.4698 43.4548C51.562 43.4548 52.4474 42.5693 52.4474 41.4771C52.4474 40.3849 51.562 39.4995 50.4698 39.4995C49.3776 39.4995 48.4922 40.3849 48.4922 41.4771C48.4922 42.5693 49.3776 43.4548 50.4698 43.4548Z" fill="white"/>
<path d="M58.4151 43.4548C59.5073 43.4548 60.3927 42.5693 60.3927 41.4771C60.3927 40.3849 59.5073 39.4995 58.4151 39.4995C57.3229 39.4995 56.4375 40.3849 56.4375 41.4771C56.4375 42.5693 57.3229 43.4548 58.4151 43.4548Z" fill="white"/>
<defs>
<linearGradient id="paint0_linear_758_24038" x1="74.6752" y1="98.2403" x2="-0.849041" y2="98.2403" gradientUnits="userSpaceOnUse">
<stop stop-color="#02D9E5"/>
<stop offset="1" stop-color="#00C5D1"/>
</linearGradient>
<linearGradient id="paint1_linear_758_24038" x1="75.9963" y1="106.449" x2="154.147" y2="106.449" gradientUnits="userSpaceOnUse">
<stop stop-color="#E5FEFF"/>
<stop offset="1" stop-color="#B9FCFF"/>
</linearGradient>
</defs>
</svg>
