<svg width="40" height="40" viewBox="0 0 40 40" fill="none" xmlns="http://www.w3.org/2000/svg">
<g clip-path="url(#clip0_3907_47822)">
<circle cx="20" cy="20" r="20" fill="#F7F8F9"/>
<ellipse cx="20" cy="19" rx="9" ry="8" fill="#E3E7F0"/>
<path d="M16 28H24V30V30C21.421 30.9671 18.579 30.9671 16 30V30V28Z" fill="#B6BCCA"/>
<path fill-rule="evenodd" clip-rule="evenodd" d="M30 19H10V20.3638V20.8182H10.0139C10.0736 21.797 10.3259 22.7611 10.7612 23.6688C11.2638 24.7166 12.0003 25.6686 12.9289 26.4706C13.8575 27.2726 14.9599 27.9087 16.1732 28.3427C17.3864 28.7767 18.6868 29.0001 20 29.0001C21.3132 29.0001 22.6136 28.7767 23.8268 28.3427C25.0401 27.9087 26.1425 27.2726 27.0711 26.4706C27.9997 25.6686 28.7362 24.7166 29.2388 23.6688C29.6741 22.7611 29.9264 21.797 29.9861 20.8182H30V20.3638V19Z" fill="#C8CDD9"/>
</g>
<defs>
<clipPath id="clip0_3907_47822">
<rect width="40" height="40" fill="white"/>
</clipPath>
</defs>
</svg>
