<svg width="20" height="20" viewBox="0 0 20 20" fill="none" xmlns="http://www.w3.org/2000/svg">
<path d="M10 2.5C5.86 2.5 2.5 5.86 2.5 10C2.5 14.14 5.86 17.5 10 17.5C14.14 17.5 17.5 14.14 17.5 10C17.5 5.86 14.14 2.5 10 2.5Z" fill="#8691A2"/>
<path d="M9.38281 6.88965C9.38281 6.54447 9.66263 6.26465 10.0078 6.26465V6.26465C10.353 6.26465 10.6328 6.54447 10.6328 6.88965V10.375C10.6328 10.7202 10.353 11 10.0078 11V11C9.66263 11 9.38281 10.7202 9.38281 10.375V6.88965Z" fill="white"/>
<path d="M9.38281 12.625C9.38281 12.2798 9.66263 12 10.0078 12V12C10.353 12 10.6328 12.2798 10.6328 12.625V12.875C10.6328 13.2202 10.353 13.5 10.0078 13.5V13.5C9.66263 13.5 9.38281 13.2202 9.38281 12.875V12.625Z" fill="white"/>
</svg>
