<svg width="40" height="40" viewBox="0 0 40 40" fill="none" xmlns="http://www.w3.org/2000/svg">
<g clip-path="url(#clip0_3907_47935)">
<circle cx="20" cy="20" r="20" fill="#F7F8F9"/>
<path d="M10 17H30V25H10V17Z" fill="#C8CDD9"/>
<rect x="10" y="25" width="4" height="3" fill="#B6BCCA"/>
<rect x="26" y="25" width="4" height="3" fill="#B6BCCA"/>
<path d="M7 17.7143C7 17.3198 7.3198 17 7.71429 17H11V19.5H8.78571C7.79949 19.5 7 18.7005 7 17.7143V17.7143Z" fill="#C8CDD9"/>
<path d="M33 17.7143C33 17.3198 32.6802 17 32.2857 17H29V19.5H31.2143C32.2005 19.5 33 18.7005 33 17.7143V17.7143Z" fill="#C8CDD9"/>
<path d="M13 11H27L29 17H11L13 11Z" fill="#E3E7F0"/>
<circle cx="14.5" cy="20.5" r="1.5" fill="#E3E7F0"/>
<circle cx="25.5" cy="20.5" r="1.5" fill="#E3E7F0"/>
<rect x="17" y="23" width="6" height="2" fill="#B6BCCA"/>
</g>
<defs>
<clipPath id="clip0_3907_47935">
<rect width="40" height="40" fill="white"/>
</clipPath>
</defs>
</svg>
