<svg width="44" height="44" viewBox="0 0 44 44" fill="none" xmlns="http://www.w3.org/2000/svg">
<g clip-path="url(#clip0_967_25416)">
<circle cx="22" cy="22" r="22" fill="#00D5E1"/>
<path d="M22.0011 9.42871C15.0617 9.42871 9.42969 15.0607 9.42969 22.0001C9.42969 28.9396 15.0617 34.5716 22.0011 34.5716C28.9405 34.5716 34.5725 28.9396 34.5725 22.0001C34.5725 15.0607 28.9405 9.42871 22.0011 9.42871ZM11.944 22.0001C11.944 16.4436 16.4445 11.943 22.0011 11.943C24.3268 11.943 26.464 12.735 28.1611 14.0676L14.0685 28.1601C12.736 26.463 11.944 24.3259 11.944 22.0001ZM22.0011 32.0573C19.6754 32.0573 17.5383 31.2653 15.8411 29.9327L29.9337 15.8401C31.2663 17.5373 32.0583 19.6744 32.0583 22.0001C32.0583 27.5567 27.5577 32.0573 22.0011 32.0573Z" fill="white"/>
</g>
<defs>
<clipPath id="clip0_967_25416">
<rect width="44" height="44" fill="white"/>
</clipPath>
</defs>
</svg>
