<svg width="100" height="83" viewBox="0 0 100 83" fill="none" xmlns="http://www.w3.org/2000/svg">
<g clip-path="url(#clip0_1063_32533)">
<path d="M70.0574 0.669922C86.0599 0.669922 99.0211 13.6312 99.0211 29.6336C99.0211 36.9107 96.3239 43.5362 91.9069 48.6229L94.9481 58.1085L84.7746 54.5605C80.4662 57.1129 75.4338 58.5973 70.0574 58.5973C54.055 58.5973 41.0938 45.636 41.0938 29.6336C41.0938 13.6312 54.055 0.669922 70.0574 0.669922Z" fill="#01D1DD"/>
<path d="M81.4706 32.531C83.0702 32.531 84.367 31.2343 84.367 29.6346C84.367 28.035 83.0702 26.7383 81.4706 26.7383C79.871 26.7383 78.5742 28.035 78.5742 29.6346C78.5742 31.2343 79.871 32.531 81.4706 32.531Z" fill="#F0F2F4"/>
<path d="M70.1972 32.531C71.7968 32.531 73.0935 31.2343 73.0935 29.6346C73.0935 28.035 71.7968 26.7383 70.1972 26.7383C68.5975 26.7383 67.3008 28.035 67.3008 29.6346C67.3008 31.2343 68.5975 32.531 70.1972 32.531Z" fill="#F0F2F4"/>
<path d="M58.9315 32.531C60.5311 32.531 61.8279 31.2343 61.8279 29.6346C61.8279 28.035 60.5311 26.7383 58.9315 26.7383C57.3319 26.7383 56.0352 28.035 56.0352 29.6346C56.0352 31.2343 57.3319 32.531 58.9315 32.531Z" fill="#F0F2F4"/>
<path d="M29.8113 24.3496C13.8089 24.3496 0.847656 37.3109 0.847656 53.3133C0.847656 60.5904 3.5449 67.2158 7.96186 72.3026L4.92067 81.7882L15.0942 78.2401C19.4025 80.7926 24.4349 82.277 29.8113 82.277C45.8138 82.277 58.775 69.3157 58.775 53.3133C58.775 37.3109 45.8138 24.3496 29.8113 24.3496Z" fill="#F0F2F4"/>
<g clip-path="url(#clip1_1063_32533)">
<path d="M17.8945 45.7344V54.9378H23.6815L21.6346 60.3502H26.4612L28.5081 54.9378V45.7344H17.8945Z" fill="#01D1DD"/>
</g>
<g clip-path="url(#clip2_1063_32533)">
<path d="M31.2734 45.7344V54.9378H37.0604L35.0135 60.3502H39.8401L41.887 54.9378V45.7344H31.2734Z" fill="#01D1DD"/>
</g>
</g>
<defs>
<clipPath id="clip0_1063_32533">
<rect width="98.1687" height="81.6052" fill="white" transform="translate(0.847656 0.669922)"/>
</clipPath>
<clipPath id="clip1_1063_32533">
<rect width="10.6136" height="14.6158" fill="white" transform="translate(17.8945 45.7344)"/>
</clipPath>
<clipPath id="clip2_1063_32533">
<rect width="10.6136" height="14.6158" fill="white" transform="translate(31.2734 45.7344)"/>
</clipPath>
</defs>
</svg>
