<svg width="40" height="40" viewBox="0 0 40 40" fill="none" xmlns="http://www.w3.org/2000/svg">
<g clip-path="url(#clip0_754_24326)">
<path d="M0 20C0 31.0457 8.95539 40 20.0011 40C31.0468 40 40.0022 31.0457 40.0022 20C40.0022 8.95431 31.0468 0 20.0011 0C8.95539 0 0 8.95431 0 20Z" fill="black"/>
<path d="M20.2007 14.507C20.9571 14.507 21.9053 13.9799 22.47 13.2772C22.9814 12.6403 23.3542 11.7508 23.3542 10.8614C23.3542 10.7406 23.3436 10.6198 23.3223 10.521C22.4806 10.5539 21.4685 11.103 20.8612 11.8387C20.3818 12.3987 19.945 13.2772 19.945 14.1776C19.945 14.3094 19.9663 14.4411 19.9769 14.485C20.0302 14.496 20.1154 14.507 20.2007 14.507ZM17.5372 27.7937C18.5706 27.7937 19.0287 27.08 20.3179 27.08C21.6283 27.08 21.916 27.7718 23.0666 27.7718C24.1959 27.7718 24.9523 26.6956 25.6662 25.6415C26.4652 24.4336 26.7955 23.2477 26.8168 23.1928C26.7422 23.1708 24.5795 22.2594 24.5795 19.7009C24.5795 17.4828 26.2841 16.4835 26.38 16.4067C25.2507 14.7376 23.5354 14.6937 23.0666 14.6937C21.7988 14.6937 20.7653 15.4843 20.1154 15.4843C19.4123 15.4843 18.4854 14.7376 17.388 14.7376C15.2998 14.7376 13.1797 16.5165 13.1797 19.8766C13.1797 21.9629 13.9681 24.1701 14.9376 25.5976C15.7686 26.8055 16.4931 27.7937 17.5372 27.7937Z" fill="white"/>
</g>
<defs>
<clipPath id="clip0_754_24326">
<rect width="40" height="40" fill="white"/>
</clipPath>
</defs>
</svg>
