<svg width="32" height="32" viewBox="0 0 32 32" fill="none" xmlns="http://www.w3.org/2000/svg">
<path d="M25.5968 25.9996C25.7906 25.9996 25.9485 25.8424 25.9401 25.6488C25.8955 24.6166 25.6543 23.5988 25.2265 22.6427C24.7504 21.5784 24.0526 20.6114 23.1729 19.7968C22.2931 18.9823 21.2488 18.3361 20.0993 17.8953C18.9499 17.4544 17.718 17.2275 16.4738 17.2275C15.2297 17.2275 13.9978 17.4544 12.8484 17.8953C11.6989 18.3361 10.6546 18.9823 9.77483 19.7968C8.8951 20.6114 8.19726 21.5784 7.72115 22.6427C7.29343 23.5988 7.05219 24.6166 7.00758 25.6488C6.99921 25.8424 7.1571 25.9996 7.35088 25.9996H16.4738H25.5968Z" fill="#00D0DC"/>
<circle cx="16.3888" cy="10.8263" r="4.8263" fill="#A7FAFF"/>
</svg>
