<svg width="68" height="64" viewBox="0 0 68 64" fill="none" xmlns="http://www.w3.org/2000/svg">
<path d="M66.2393 69.4969C66.9296 69.4969 67.4919 68.9371 67.4621 68.2475C67.3032 64.5708 66.444 60.9456 64.9205 57.54C63.2246 53.7492 60.739 50.3048 57.6056 47.4034C54.4721 44.502 50.7521 42.2005 46.658 40.6303C42.564 39.0601 38.176 38.252 33.7446 38.252C29.3132 38.252 24.9252 39.0601 20.8311 40.6303C16.737 42.2005 13.017 44.502 9.88355 47.4034C6.75008 50.3048 4.26447 53.7492 2.56865 57.54C1.04516 60.9456 0.185895 64.5708 0.0269886 68.2475C-0.00281562 68.9371 0.559547 69.4969 1.24978 69.4969L33.7446 69.4969H66.2393Z" fill="#F0F2F4"/>
<circle cx="33.5" cy="15.5" r="15.5" fill="#F0F2F4"/>
</svg>
